<?xml version="1.0" encoding="UTF-8" standalone="no"?>
<!DOCTYPE svg  PUBLIC '-//W3C//DTD SVG 1.1//EN'  'http://www.w3.org/Graphics/SVG/1.1/DTD/svg11.dtd'>
<svg version="1.1" xmlns="http://www.w3.org/2000/svg">
<defs>
<font id="Ainslie-NorReg" horiz-adv-x="524">
<font-face underline-position="-150" panose-1="2 0 5 3 2 0 0 2 0 3" font-family="Ainslie Norm Regular" font-weight="500" cap-height="708" unicode-range="U+0020-00FE" units-per-em="1000" descent="-200" ascent="800" underline-thickness="50" bbox="-33.4545 -257 1168 970" x-height="463"/>
<missing-glyph/>
<glyph unicode=" " glyph-name="space" horiz-adv-x="261"/>
<glyph d="M100 164v511q0 22 5.5 27.5t27.5 5.5h7q22 0 27.5 -5.5t5.5 -27.5v-511q0 -21 -5.5 -26.5t-27.5 -5.5h-7q-22 0 -27.5 5.5t-5.5 26.5zM93 33q0 18 12 29t31 11q20 0 32.5 -10.5t12.5 -29.5t-12.5 -30t-32.5 -11q-19 0 -31 11t-12 30z" unicode="!" glyph-name="exclam" horiz-adv-x="273"/>
<glyph d="M84 507l-15 189q-1 19 16 19h43q18 0 17 -20l-14 -189q-2 -11 -11 -11h-24q-11 0 -12 12zM262 507l-15 189q-1 19 16 19h43q18 0 17 -20l-14 -189q-2 -11 -11 -11h-24q-11 0 -12 12z" unicode='&quot;' glyph-name="quotedbl" horiz-adv-x="393"/>
<glyph d="M689 673l-69 -155h109q17 0 21.5 -4t4.5 -19v-16q0 -15 -5 -19.5t-21 -4.5h-137l-93 -207h110q17 0 21.5 -4t4.5 -19v-16q0 -15 -5 -19.5t-21 -4.5h-138l-71 -161q-10 -24 -35 -24h-22q-18 0 -22 7t4 26l67 152h-151l-71 -161q-10 -24 -35 -24h-22q-18 0 -22 7t4 26 l67 152h-93q-17 0 -21.5 4.5t-4.5 19.5v16q0 15 4.5 19t21.5 4h121l92 207h-98q-16 0 -21 4.5t-5 19.5v16q0 15 4.5 19t21.5 4h126l74 166q7 15 13 19.5t19 4.5h30q16 0 19 -7t-6 -28l-69 -155h150l74 166q7 15 13 19.5t19 4.5h30q16 0 19 -7t-6 -28zM362 455l-93 -207h151 l92 207h-150z" unicode="#" glyph-name="numbersign" horiz-adv-x="797"/>
<glyph d="M296 664q-69 0 -107 -29t-38 -84q0 -37 19 -62.5t50 -40t68 -27t74 -29t68 -39t50 -64.5t19 -99q0 -82 -42.5 -134t-129.5 -64v-70q0 -21 -5 -26.5t-23 -5.5h-16q-18 0 -23 5.5t-5 26.5v65q-94 3 -162 36q-47 22 -47 65q0 15 7 17t21 -5q94 -50 186 -50q78 0 121 34 t43 101q0 40 -15 70.5t-39.5 47.5t-55.5 32t-63.5 25t-63.5 25.5t-55.5 34t-39.5 50.5t-15 75q0 83 48 128.5t130 52.5v49q0 22 5.5 27.5t26.5 5.5h8q21 0 26.5 -5.5t5.5 -27.5v-48q76 -5 123 -33q29 -17 29 -53q0 -17 -21 -9q-75 32 -162 32z" unicode="$" glyph-name="dollar" horiz-adv-x="541"/>
<glyph d="M329 545q0 -84 -37.5 -132t-113.5 -48q-75 0 -112.5 48.5t-37.5 131.5q0 84 38 133t112 49q75 0 113 -48.5t38 -133.5zM91 546q0 -53 21 -88.5t66 -35.5q46 0 67.5 35.5t21.5 88.5t-22 88.5t-67 35.5q-44 0 -65.5 -35.5t-21.5 -88.5zM759 167q0 -84 -37 -132t-114 -48 q-75 0 -112.5 48.5t-37.5 131.5q0 84 38 133t112 49q76 0 113.5 -48.5t37.5 -133.5zM521 168q0 -53 21.5 -88.5t65.5 -35.5q46 0 67.5 35.5t21.5 88.5t-22 88.5t-67 35.5q-44 0 -65.5 -35.5t-21.5 -88.5zM570 673l-289 -649q-10 -24 -35 -24h-22q-18 0 -22 7t4 26l289 651 q7 15 13 19.5t19 4.5h30q16 0 19 -7t-6 -28z" unicode="%" glyph-name="percent" horiz-adv-x="786"/>
<glyph d="M633 202q-42 -48 -65 -71q7 -7 76 -79q10 -10 0 -21l-23 -22q-12 -14 -25 -1l-77 77q-113 -98 -222 -98q-122 0 -183 53t-61 150q0 41 13 72t39 53t51 36t63 29q-65 74 -65 160q0 178 165 178t165 -168q0 -71 -40 -112.5t-112 -73.5q84 -80 191 -187q33 33 63 72 q11 14 24 2l24 -24q12 -10 -1 -25zM278 323l-14 11q-67 -29 -102 -61t-35 -86q0 -70 47.5 -103.5t122.5 -33.5q83 0 177 81q-131 131 -196 192zM220 539q0 -71 66 -133q64 26 98 57.5t34 85.5q0 110 -99 110t-99 -120z" unicode="&amp;" glyph-name="ampersand" horiz-adv-x="688"/>
<glyph d="M84 507l-15 189q-1 19 16 19h43q18 0 17 -20l-14 -189q-2 -11 -11 -11h-24q-11 0 -12 12z" unicode="&apos;" glyph-name="quotesingle" horiz-adv-x="215"/>
<glyph d="M133 354h-76q0 81 27.5 175t76.5 175q13 22 19 27.5t21 5.5h22q30 0 12 -33q-48 -82 -74 -174.5t-28 -175.5zM133 354h-76q0 -81 27.5 -175.5t76.5 -175.5q13 -21 19 -26.5t21 -5.5h22q30 0 12 32q-99 172 -102 351z" unicode="(" glyph-name="parenleft" horiz-adv-x="292"/>
<glyph d="M235 354h-77q-2 179 -101 350q-20 33 11 33h23q14 0 20.5 -5.5t19.5 -27.5q49 -81 76.5 -175t27.5 -175zM158 354h77q0 -81 -27.5 -175.5t-76.5 -175.5q-13 -21 -19.5 -26.5t-20.5 -5.5h-23q-31 0 -11 32q99 173 101 351z" unicode=")" glyph-name="parenright" horiz-adv-x="292"/>
<glyph d="M67 604l126 -55l-13 146q0 16 12 16h40q14 0 13 -18l-10 -145l128 56q16 7 19 -8l12 -36q4 -15 -12 -18l-127 -34l94 -110q12 -13 0 -20l-32 -23q-13 -8 -22 7l-80 128l-80 -128q-9 -15 -23 -6l-31 22q-12 7 -1 21l93 110l-126 33q-15 3 -11 19l11 36q5 13 20 7z" unicode="*" glyph-name="asterisk" horiz-adv-x="430"/>
<glyph d="M79 325q-17 0 -21.5 4.5t-4.5 19.5v16q0 15 4.5 19t21.5 4h146v163q0 14 4 18.5t18 4.5h19q14 0 18.5 -4.5t4.5 -18.5v-163h151q17 0 21.5 -4t4.5 -19v-16q0 -15 -5 -19.5t-21 -4.5h-151v-157q0 -14 -4.5 -19t-19.5 -5h-17q-14 0 -18.5 5t-4.5 19v157h-146z" unicode="+" glyph-name="plus" horiz-adv-x="519"/>
<glyph d="M28 -107q13 33 25 70t19 58t12 29q12 22 37 22q20 0 32 -14t4 -35q-3 -8 -9 -17.5t-18 -24t-22 -26.5t-30 -35t-33 -38q-7 -6 -13.5 -2.5t-3.5 13.5z" unicode="," glyph-name="comma" horiz-adv-x="230"/>
<glyph d="M282 287q17 0 22 -4t5 -20v-14q0 -16 -5 -20.5t-22 -4.5h-193q-17 0 -22 4.5t-5 20.5v14q0 15 5 19.5t22 4.5h193z" unicode="-" glyph-name="hyphen" horiz-adv-x="383"/>
<glyph d="M70 33q0 18 12 29t31 11q20 0 32.5 -10.5t12.5 -29.5t-12.5 -30t-32.5 -11q-19 0 -31 11t-12 30z" unicode="." glyph-name="period" horiz-adv-x="227"/>
<glyph d="M537 684l-418 -664q-5 -7 -6.5 -9.5t-5 -5.5t-8 -4t-11.5 -1h-41q-25 0 -11 24l417 663q9 14 14.5 17.5t17.5 3.5h38q29 0 14 -24z" unicode="/" glyph-name="slash" horiz-adv-x="572"/>
<glyph d="M615 351q0 -167 -68.5 -265.5t-205.5 -98.5t-206 98.5t-69 265.5q0 169 70 269t205 100t204.5 -99.5t69.5 -269.5zM141 352q0 -84 18.5 -149.5t64.5 -109.5t117 -44q53 0 92.5 24.5t62 68t33.5 96t11 114.5q0 134 -48 220t-151 86q-71 0 -117 -44t-64.5 -110t-18.5 -152z " unicode="0" glyph-name="zero" horiz-adv-x="681"/>
<glyph d="M214 677v-650q0 -17 -5 -22t-22 -5h-19q-16 0 -21.5 5t-5.5 22v618h-40q-33 0 -50.5 15t-17.5 35q0 9 4.5 11t18.5 2h128q20 0 25 -5.5t5 -25.5z" unicode="1" glyph-name="one" horiz-adv-x="325"/>
<glyph d="M477 0h-396q-15 0 -19.5 8t-4.5 29q0 67 20 119.5t51.5 84.5t70 57.5t77 47t70 44.5t51.5 57.5t20 79.5q0 128 -147 128q-43 0 -80 -10.5t-53.5 -19.5t-45.5 -28q-20 -13 -20 15q0 36 29 58q59 48 171 48q107 0 164 -48t57 -142q0 -55 -19.5 -97t-50.5 -69t-69 -50 t-75.5 -45t-69 -48t-52 -65.5t-21.5 -90.5h342q16 0 21 -4.5t5 -19.5v-15q0 -15 -4.5 -19.5t-21.5 -4.5z" unicode="2" glyph-name="two" horiz-adv-x="562"/>
<glyph d="M456 203q0 72 -48 109t-139 37h-41q-16 0 -20.5 4.5t-4.5 19.5v16q0 15 4.5 19.5t20.5 4.5h40q67 0 104 31.5t37 93.5q0 61 -37.5 89t-115.5 28q-65 0 -152 -35q-14 -5 -18 -2t-4 16q0 37 36 56q58 28 153 28q101 0 157 -44t56 -131q0 -121 -112 -157q75 -13 117 -55.5 t42 -129.5q0 -96 -61 -153.5t-194 -57.5q-115 0 -187 29q-26 11 -34.5 23t-8.5 34q0 15 5 18t20 -2q101 -39 201 -39q90 0 137 39t47 111z" unicode="3" glyph-name="three" horiz-adv-x="592"/>
<glyph d="M52 151q-13 0 -17.5 7.5t1.5 21.5l249 475h-21q-12 0 -24.5 11.5t-12.5 27.5q0 14 20 14h62q51 0 51 -31q0 -19 -14 -46l-216 -417h233v116q0 24 6 31t26 7h7q22 0 27.5 -6.5t5.5 -31.5v-116h94q16 0 20.5 -4t4.5 -19v-16q0 -15 -4.5 -19.5t-20.5 -4.5h-94v-119 q0 -21 -6 -26.5t-27 -5.5h-8q-20 0 -25.5 5.5t-5.5 26.5v119h-311z" unicode="4" glyph-name="four" horiz-adv-x="585"/>
<glyph d="M259 456q253 0 253 -223q0 -246 -250 -246q-96 0 -149 20q-29 10 -41 24.5t-12 36.5q0 14 5.5 16t25.5 -4q81 -30 166 -30q89 0 135 48t46 135q0 88 -52 124t-145 36h-102q-16 0 -20.5 4.5t-4.5 20.5v236h-18q-38 10 -38 41q0 9 4.5 11t18.5 2h383q14 0 18 -2t4 -11 q0 -21 -17 -35.5t-51 -14.5h-231v-189h72z" unicode="5" glyph-name="five" horiz-adv-x="568"/>
<glyph d="M67 323q0 68 7.5 123.5t27 107t50.5 86.5t80.5 56t114.5 21q74 0 119.5 -20t45.5 -61q0 -21 -21 -11q-50 29 -135 29q-106 0 -155 -70t-57 -202q73 64 178 64q100 0 163.5 -52.5t63.5 -159.5q0 -114 -60.5 -180.5t-176.5 -66.5q-129 0 -187 82.5t-58 253.5zM313 383 q-105 0 -171 -68q0 -134 38.5 -199.5t134.5 -65.5q74 0 117 46.5t43 134.5q0 80 -45 116t-117 36z" unicode="6" glyph-name="six" horiz-adv-x="605"/>
<glyph d="M34 694q0 9 4.5 11.5t18.5 2.5h414q15 0 21.5 -8t-0.5 -21l-323 -660q-10 -19 -29 -19h-42q-22 0 -9 27l305 618h-292q-33 0 -50.5 14.5t-17.5 34.5z" unicode="7" glyph-name="seven" horiz-adv-x="515"/>
<glyph d="M321 718q209 0 209 -175q0 -66 -28 -106t-71 -52q68 -11 109 -61t41 -129q0 -103 -67.5 -155.5t-192.5 -52.5t-192.5 52.5t-67.5 155.5q0 79 41 129t109 61q-43 12 -71 52t-28 106q0 175 209 175zM503 196q0 70 -46.5 110t-135.5 40t-135.5 -40t-46.5 -110 q0 -78 51.5 -112t130.5 -34t130.5 34t51.5 112zM321 655q-135 0 -135 -119q0 -59 34.5 -93t100.5 -34t100.5 34t34.5 93q0 119 -135 119z" unicode="8" glyph-name="eight" horiz-adv-x="642"/>
<glyph d="M541 365q0 -378 -276 -378q-123 0 -171 45q-19 17 -19 45q0 13 5.5 16t18.5 -2q64 -41 155 -41q189 0 210 246q-70 -55 -176 -55q-95 0 -159.5 57.5t-64.5 168.5q0 116 59 183t169 67q134 0 191.5 -87.5t57.5 -264.5zM295 304q103 0 172 63q0 149 -41.5 218t-133.5 69 q-71 0 -112.5 -48.5t-41.5 -134.5q0 -83 44 -125t113 -42z" unicode="9" glyph-name="nine" horiz-adv-x="609"/>
<glyph d="M74 33q0 18 12 29t31 11q20 0 32.5 -10.5t12.5 -29.5t-12.5 -30t-32.5 -11q-19 0 -31 11t-12 30zM74 373q0 18 12 29t31 11q20 0 32.5 -10.5t12.5 -29.5t-12.5 -30t-32.5 -11q-19 0 -31 11t-12 30z" unicode=":" glyph-name="colon" horiz-adv-x="235"/>
<glyph d="M83 373q0 18 12 29t31 11q20 0 32.5 -10.5t12.5 -29.5t-12.5 -30t-32.5 -11q-19 0 -31 11t-12 30zM31 -107q13 33 25 70t19 58t12 29q12 22 37 22q20 0 32 -14t4 -35q-3 -8 -9 -17.5t-18 -24t-22 -26.5t-30 -35t-33 -38q-7 -6 -13.5 -2.5t-3.5 13.5z" unicode=";" glyph-name="semicolon" horiz-adv-x="243"/>
<glyph d="M116 236h-75q0 20 20 34l294 192q15 10 33 10h39q16 0 18.5 -8t-9.5 -16zM116 236h-75q0 -20 20 -34l294 -193q15 -9 33 -9h39q16 0 18.5 8t-9.5 16z" unicode="&lt;" glyph-name="less" horiz-adv-x="501"/>
<glyph d="M106 345q-16 0 -21 4.5t-5 19.5v16q0 15 4.5 19t21.5 4h363q16 0 20.5 -4t4.5 -19v-16q0 -15 -4.5 -19.5t-20.5 -4.5h-363zM469 208q16 0 20.5 -4t4.5 -19v-16q0 -15 -4.5 -19.5t-20.5 -4.5h-363q-16 0 -21 4.5t-5 19.5v16q0 15 4.5 19t21.5 4h363z" unicode="=" glyph-name="equal" horiz-adv-x="574"/>
<glyph d="M460 236h-75l-320 212q-12 8 -9 16t19 8h39q18 0 33 -10l292 -192q21 -14 21 -34zM385 236h75q0 -20 -21 -34l-292 -193q-15 -9 -33 -9h-39q-16 0 -19 8t9 16z" unicode="&gt;" glyph-name="greater" horiz-adv-x="501"/>
<glyph d="M230 655q-89 0 -168 -42q-22 -11 -22 14q0 41 56.5 66t141.5 25q100 0 154.5 -47.5t54.5 -140.5q0 -54 -20 -93t-48 -61.5t-56 -44t-48 -53.5t-20 -76v-33q0 -16 -16 -16h-43q-15 0 -15 16v29q0 55 19.5 96t48 65t56.5 46t47.5 52.5t19.5 71.5q0 59 -35.5 92.5 t-106.5 33.5zM175 33q0 18 12 29t31 11q20 0 32.5 -10.5t12.5 -29.5t-12.5 -30t-32.5 -11q-19 0 -31 11t-12 30z" unicode="?" glyph-name="question" horiz-adv-x="494"/>
<glyph d="M396 247q60 0 88 41v116q-36 29 -88 29q-38 0 -60 -26.5t-22 -71.5q0 -38 21.5 -63t60.5 -25zM495 484h31q11 0 11 -10v-180q0 -20 19.5 -41.5t45.5 -21.5t44.5 16.5t26.5 43t11.5 49.5t3.5 45q0 119 -74 194.5t-206 75.5q-134 0 -210.5 -87.5t-76.5 -218.5 q0 -146 77 -224t197 -78q54 0 112 16t97 50q13 11 22 2l21 -23q7 -8 -4 -19q-82 -83 -248 -83q-146 0 -238.5 90.5t-92.5 264.5q0 159 92.5 262.5t250.5 103.5q156 0 247.5 -91.5t91.5 -230.5q0 -32 -6 -63.5t-20.5 -67t-46.5 -57t-77 -21.5q-64 0 -101 55q-47 -38 -108 -38 q-62 0 -98.5 36.5t-36.5 99.5q0 66 36 107.5t97 41.5q53 0 99 -28v20q0 10 11 10z" unicode="@" glyph-name="at" horiz-adv-x="822"/>
<glyph d="M221 695q0 9 4 11t18 2h107q15 0 20.5 -4.5t10.5 -16.5l256 -664q9 -23 -15 -23h-31q-15 0 -20.5 4t-11.5 19l-68 180h-310l-68 -181q-5 -14 -11.5 -18t-21.5 -4h-28q-25 0 -16 23l244 631h-21q-38 10 -38 41zM337 617l-133 -351h264z" unicode="A" glyph-name="A" horiz-adv-x="674"/>
<glyph d="M338 708q98 0 147 -49t49 -126q0 -126 -104 -160q154 -24 154 -178q0 -91 -56.5 -143t-169.5 -52h-221q-18 0 -23.5 5t-5.5 22v627h-21q-37 10 -37 41q0 9 4 11t18 2h266zM345 337h-164v-274h164q162 0 162 138q0 136 -162 136zM320 645h-139v-245h150q61 0 93.5 32 t32.5 91q0 122 -137 122z" unicode="B" glyph-name="B" horiz-adv-x="639"/>
<glyph d="M60 347q0 185 90 283t263 98q139 0 189 -55q18 -18 18 -45q0 -14 -4.5 -15.5t-20.5 6.5q-90 46 -178 46q-142 0 -212 -85t-70 -233q0 -141 68.5 -219t212.5 -78q42 0 79 6.5t58 14t56 21.5q20 9 20 -11q0 -19 -11 -33q-20 -28 -75 -44.5t-132 -16.5q-171 0 -261 90 t-90 270z" unicode="C" glyph-name="C" horiz-adv-x="666"/>
<glyph d="M51 695q0 9 4 11t18 2h250q176 0 265.5 -94.5t89.5 -258.5t-89.5 -259.5t-265.5 -95.5h-185q-18 0 -23.5 5t-5.5 22v627h-21q-37 10 -37 41zM327 645h-146v-582h146q73 0 127 23.5t85.5 64.5t46.5 92.5t15 112.5q0 130 -66.5 209.5t-207.5 79.5z" unicode="D" glyph-name="D" horiz-adv-x="738"/>
<glyph d="M51 695q0 9 4 11t18 2h411q14 0 18 -2t4 -11q0 -21 -17 -35.5t-51 -14.5h-257v-245h245q14 0 18 -2t4 -11q0 -21 -17 -35.5t-50 -14.5h-200v-274h293q16 0 21 -4.5t5 -19.5v-15q0 -15 -5 -19.5t-21 -4.5h-336q-18 0 -23.5 5t-5.5 22v627h-21q-37 10 -37 41z" unicode="E" glyph-name="E" horiz-adv-x="550"/>
<glyph d="M57 695q0 9 4 11t18 2h398q14 0 18.5 -2t4.5 -11q0 -21 -17.5 -35.5t-50.5 -14.5h-251v-258h236q14 0 18.5 -2t4.5 -11q0 -21 -17.5 -36t-50.5 -15h-191v-296q0 -17 -5.5 -22t-21.5 -5h-19q-17 0 -22 5t-5 22v627h-14q-37 10 -37 41z" unicode="F" glyph-name="F" horiz-adv-x="513"/>
<glyph d="M432 352q0 10 5 12.5t21 2.5h184q20 0 25 -5.5t5 -27.5v-265q0 -17 -4 -24t-18 -13q-107 -45 -228 -45q-183 0 -272.5 98.5t-89.5 267.5q0 176 89 275t277 99q135 0 214 -54q27 -20 27 -52q0 -11 -3.5 -15.5t-11.5 -0.5q-107 58 -223 58q-291 0 -291 -308 q0 -303 284 -303q101 0 178 35v217h-117q-24 0 -37.5 13.5t-13.5 34.5z" unicode="G" glyph-name="G" horiz-adv-x="744"/>
<glyph d="M50 695q0 9 4.5 11t18.5 2h78q20 0 25 -5.5t5 -25.5v-276h359v276q0 20 5.5 25.5t25.5 5.5h11q20 0 25.5 -5.5t5.5 -25.5v-650q0 -17 -5.5 -22t-21.5 -5h-19q-17 0 -22 5t-5 22v311h-359v-311q0 -17 -5 -22t-21 -5h-19q-17 0 -22 5t-5 22v627h-21q-38 10 -38 41z" unicode="H" glyph-name="H" horiz-adv-x="715"/>
<glyph d="M50 695q0 9 4.5 11t18.5 2h77q20 0 25.5 -5.5t5.5 -25.5v-650q0 -17 -5.5 -22t-21.5 -5h-19q-17 0 -22 5t-5 22v627h-20q-38 10 -38 41z" unicode="I" glyph-name="I" horiz-adv-x="283"/>
<glyph d="M270 695q0 9 4 11t18 2h76q22 0 27.5 -5.5t5.5 -27.5v-480q0 -105 -52.5 -156.5t-141.5 -51.5q-93 0 -157 41q-29 17 -29 55q0 18 21 8q76 -41 148 -41q65 0 101.5 33t36.5 112v459h-20q-38 10 -38 41z" unicode="J" glyph-name="J" horiz-adv-x="497"/>
<glyph d="M51 695q0 9 4.5 11t18.5 2h76q20 0 25.5 -5.5t5.5 -25.5v-273l276 261q29 31 39 37t32 6h19q14 0 19.5 -3.5t2 -12t-18.5 -24.5l-294 -278l316 -355q30 -35 -8 -35h-19q-23 0 -30 3.5t-22 20.5l-312 350v-347q0 -17 -5.5 -22t-21.5 -5h-19q-17 0 -22 5t-5 22v627h-19 q-38 10 -38 41z" unicode="K" glyph-name="K" horiz-adv-x="603"/>
<glyph d="M50 695q0 9 4.5 11t18.5 2h77q20 0 25.5 -5.5t5.5 -25.5v-614h266q17 0 22 -4.5t5 -19.5v-15q0 -15 -5 -19.5t-22 -4.5h-312q-17 0 -22 5t-5 22v627h-20q-38 10 -38 41z" unicode="L" glyph-name="L" horiz-adv-x="495"/>
<glyph d="M818 677v-650q0 -17 -5 -22t-22 -5h-19q-16 0 -21.5 5t-5.5 22v589l-242 -597q-7 -19 -31 -19h-22q-15 0 -21.5 4t-10.5 16l-237 595v-588q0 -17 -5 -22t-21 -5h-19q-17 0 -22 5t-5 22v627h-21q-37 10 -37 41q0 9 4 11t18 2h103q26 0 38 -10t24 -44l222 -566l230 566 q11 32 25 43t41 11h31q20 0 25.5 -5.5t5.5 -25.5z" unicode="M" glyph-name="M" horiz-adv-x="920"/>
<glyph d="M624 677v-650q0 -17 -5 -22t-22 -5h-41q-18 0 -27 14l-348 597v-584q0 -17 -5.5 -22t-22.5 -5h-19q-16 0 -21.5 5t-5.5 22v627h-20q-37 10 -37 41q0 9 4 11t18 2h104q16 0 27 -9t25 -37l323 -557v572q0 20 5.5 25.5t25.5 5.5h11q20 0 25.5 -5.5t5.5 -25.5z" unicode="N" glyph-name="N" horiz-adv-x="726"/>
<glyph d="M748 353q0 -167 -86 -266.5t-258 -99.5t-258.5 99.5t-86.5 266.5q0 169 88 271.5t257 102.5q170 0 257 -102.5t87 -271.5zM134 354q0 -132 66 -218t204 -86q72 0 125.5 24.5t84 68t45 96t14.5 115.5q0 64 -15 118t-45.5 98t-84 69t-124.5 25q-94 0 -156.5 -44.5t-88 -112 t-25.5 -153.5z" unicode="O" glyph-name="O" horiz-adv-x="807"/>
<glyph d="M50 695q0 9 4 11t18 2h219q118 0 188.5 -53t70.5 -158q0 -114 -69.5 -166t-189.5 -52h-110v-252q0 -17 -5 -22t-21 -5h-19q-17 0 -22 5t-5 22v627h-22q-37 10 -37 41zM291 647h-110v-307h110q182 0 182 158q0 75 -47.5 112t-134.5 37z" unicode="P" glyph-name="P" horiz-adv-x="591"/>
<glyph d="M748 353q0 -148 -67 -243.5t-203 -116.5q32 -12 57 -24l155 -83q87 -40 120 -39q14 0 28.5 6t18.5 8.5t11 -1.5q6 -7 6 -21q0 -24 -24 -40t-59 -16q-39 0 -123 39l-134 75q-58 28 -87.5 37t-58.5 7q-15 -1 -33.5 -8.5t-24.5 -10t-14 2.5q-4 8 -4 21q0 26 34 44 q-143 17 -215 114t-72 249q0 169 88 271.5t257 102.5q170 0 257 -102.5t87 -271.5zM134 354q0 -132 66 -218t204 -86q72 0 125.5 24.5t84 68t45 96t14.5 115.5q0 64 -15 118t-45.5 98t-84 69t-124.5 25q-94 0 -156.5 -44.5t-88 -112t-25.5 -153.5z" unicode="Q" glyph-name="Q" horiz-adv-x="807"/>
<glyph d="M50 695q0 9 4.5 11t18.5 2h219q118 0 188.5 -53t70.5 -158q0 -158 -142 -203l116 -215q9 -16 18 -24t15 -9.5t16 -1.5q17 0 17 -9q0 -39 -52 -39q-27 0 -45.5 12.5t-35.5 45.5l-118 227q-32 -2 -48 -2h-111v-252q0 -17 -5 -22t-21 -5h-19q-17 0 -22 5t-5 22v627h-21 q-38 10 -38 41zM292 647h-111v-307h111q181 0 181 158q0 75 -47.5 112t-133.5 37z" unicode="R" glyph-name="R" horiz-adv-x="629"/>
<glyph d="M296 664q-69 0 -107 -29t-38 -84q0 -37 19 -62.5t50 -40t68 -27t74 -29t68 -39t50 -64.5t19 -99q0 -94 -57 -148.5t-173 -54.5q-101 0 -176 36q-47 22 -47 65q0 15 7 17t21 -5q94 -50 186 -50q78 0 121 34t43 101q0 40 -15 70.5t-39.5 47.5t-55.5 32t-63.5 25t-63.5 25.5 t-55.5 34t-39.5 50.5t-15 75q0 92 58 137.5t154 45.5q104 0 161 -34q29 -17 29 -53q0 -17 -21 -9q-75 32 -162 32z" unicode="S" glyph-name="S" horiz-adv-x="555"/>
<glyph d="M85 645q-33 0 -50.5 14.5t-17.5 34.5q0 9 4.5 11.5t18.5 2.5h455q17 0 22 -4.5t5 -19.5v-15q0 -16 -5 -20t-22 -4h-182v-618q0 -17 -5.5 -22t-21.5 -5h-19q-17 0 -22 5t-5 22v618h-155z" unicode="T" glyph-name="T" horiz-adv-x="548"/>
<glyph d="M179 675v-440q0 -83 42.5 -134.5t129.5 -51.5q95 0 138.5 51t43.5 135v419h-21q-38 10 -38 41q0 9 4.5 11t18.5 2h76q22 0 27 -5.5t5 -27.5v-441q0 -115 -63 -181t-191 -66q-122 0 -183.5 66.5t-61.5 180.5v420h-20q-38 10 -38 41q0 9 4.5 11t18.5 2h76q22 0 27 -5.5 t5 -27.5z" unicode="U" glyph-name="U" horiz-adv-x="701"/>
<glyph d="M8 695q0 8 3 10.5t15 2.5h63q25 0 33 -6.5t19 -37.5l193 -575l206 565l-21 1q-36 11 -36 40q0 13 19 13h83q38 0 38 -25q0 -10 -8 -32l-238 -633q-6 -14 -10.5 -18t-17.5 -4h-35q-13 0 -18.5 4.5t-9.5 17.5l-219 635h-21q-38 9 -38 42z" unicode="V" glyph-name="V" horiz-adv-x="659"/>
<glyph d="M141 645l152 -546l154 581q5 19 11 23.5t26 4.5h18q19 0 25.5 -5t11.5 -23l158 -582l149 556l-23 2q-33 11 -33 39q0 13 21 13h77q22 0 31 -4t9 -18q0 -11 -8 -40l-181 -624q-5 -16 -10.5 -21t-18.5 -5h-28q-15 0 -20.5 5t-10.5 20l-159 588l-160 -590q-4 -14 -10 -18.5 t-21 -4.5h-25q-14 0 -20 4.5t-10 18.5l-183 633l-36 5q-28 8 -28 38q0 8 4.5 10.5t16.5 2.5h57q33 0 42.5 -9t21.5 -54z" unicode="W" glyph-name="W" horiz-adv-x="967"/>
<glyph d="M571 685l-217 -315l227 -344q10 -16 7.5 -21t-16.5 -5h-34q-16 0 -21.5 3t-12.5 14l-192 292l-197 -286q-15 -23 -33 -23h-37q-27 0 -11 23l239 346l-188 287l-27 1q-34 7 -34 39q0 8 4.5 10t18.5 2h61q17 0 23.5 -4.5t18.5 -23.5l164 -250l178 258q8 13 14 16.5t17 3.5 h34q29 0 14 -23z" unicode="X" glyph-name="X" horiz-adv-x="612"/>
<glyph d="M130 681l189 -349l193 323l-25 1q-33 8 -33 39q0 13 20 13h91q31 0 31 -22q0 -15 -16 -41l-225 -383v-230q0 -21 -5.5 -26.5t-27.5 -5.5h-8q-22 0 -27 5.5t-5 26.5v232l-219 390l-24 1q-37 12 -37 40q0 8 3 10.5t14 2.5h72q24 0 39 -27z" unicode="Y" glyph-name="Y" horiz-adv-x="629"/>
<glyph d="M48 81l342 564h-279q-34 0 -51 14.5t-17 34.5q0 9 4 11.5t18 2.5h396q16 0 16 -15v-25q0 -17 -13 -38l-344 -567h355q16 0 20.5 -4.5t4.5 -19.5v-15q0 -15 -4.5 -19.5t-20.5 -4.5h-422q-17 0 -17 18v25q0 19 12 38z" unicode="Z" glyph-name="Z" horiz-adv-x="535"/>
<glyph d="M259 694q0 -20 -17 -34.5t-50 -14.5h-19v-702h62q16 0 20.5 -4.5t4.5 -19.5v-15q0 -15 -4.5 -19.5t-20.5 -4.5h-108q-17 0 -22 5t-5 22v770q0 20 5.5 25.5t25.5 5.5h106q14 0 18 -2.5t4 -11.5z" unicode="[" glyph-name="bracketleft" horiz-adv-x="305"/>
<glyph d="M453 20l-417 664q-15 24 14 24h38q12 0 17.5 -3.5t13.5 -17.5l417 -663q16 -24 -10 -24h-41q-10 0 -15.5 2.5t-8 5.5t-8.5 12z" unicode="\" glyph-name="backslash" horiz-adv-x="572"/>
<glyph d="M46 694q0 9 4.5 11.5t18.5 2.5h106q20 0 25 -5.5t5 -25.5v-770q0 -17 -5 -22t-21 -5h-109q-16 0 -20.5 4.5t-4.5 19.5v15q0 15 4.5 19.5t20.5 4.5h63v702h-19q-33 0 -50.5 14.5t-17.5 34.5z" unicode="]" glyph-name="bracketright" horiz-adv-x="305"/>
<glyph d="M276 639l-151 -282q-5 -11 -18 -11h-43q-18 0 -7 18l187 341q5 10 21 10h11v-76zM276 639l151 -282q7 -11 18 -11h44q17 0 7 18l-187 341q-7 10 -21 10h-12v-76z" unicode="^" glyph-name="asciicircum" horiz-adv-x="553"/>
<glyph d="M96 -91q-16 0 -20.5 4.5t-4.5 19.5v16q0 15 4.5 19t20.5 4h479q17 0 21.5 -4t4.5 -19v-16q0 -15 -5 -19.5t-21 -4.5h-479z" unicode="_" glyph-name="underscore" horiz-adv-x="705"/>
<glyph d="M269 696l97 -110q3 -3 3 -6t-2.5 -4.5t-5.5 -1.5h-41q-12 0 -20 8l-109 107q-7 7 -5 13t11 6h47q16 0 25 -12z" unicode="`" glyph-name="grave" horiz-adv-x="832"/>
<glyph d="M73 450q0 9 4 11t19 2h136q110 0 158.5 -44t48.5 -140v-199q1 -22 7 -29.5t23 -7.5q10 0 13.5 -0.5t5 -2.5t1.5 -7q0 -38 -55 -38t-64 49q-64 -50 -172 -50q-154 0 -154 135q0 66 43 94.5t136 28.5q73 0 145 -9v26q0 77 -31 105t-104 28h-102q-27 0 -42.5 13.5 t-15.5 34.5zM368 188q-48 8 -131 8q-64 0 -93.5 -13.5t-29.5 -54.5q0 -42 25.5 -59.5t75.5 -17.5q92 0 153 46v91z" unicode="a" glyph-name="a"/>
<glyph d="M324 -8q-117 0 -171 81v-19q0 -31 -13.5 -44.5t-42.5 -13.5q-9 0 -11.5 5t-2.5 19v648h-10q-21 0 -31.5 14t-10.5 32q0 9 4 11t19 2h46q53 -1 53 -56v-288q56 86 172 86q104 0 162 -66t58 -175q0 -108 -58 -172t-163 -64zM149 228q0 -72 40 -122t121 -50q78 0 119 48 t41 125q0 78 -41 127t-118 49q-80 0 -121 -51.5t-41 -125.5z" unicode="b" glyph-name="b" horiz-adv-x="597"/>
<glyph d="M287 -12q-119 0 -177 64.5t-58 174.5q0 113 59.5 178t175.5 65q105 0 145 -52q9 -13 9 -29q0 -14 -4.5 -17.5t-19.5 1.5q-66 33 -122 33q-87 0 -128.5 -48.5t-41.5 -129.5q0 -79 41 -127.5t134 -48.5q56 0 125 30q20 7 22.5 4t2.5 -13q0 -37 -31 -54q-56 -31 -132 -31z " unicode="c" glyph-name="c" horiz-adv-x="490"/>
<glyph d="M272 -8q-105 0 -162.5 64t-57.5 172q0 109 57.5 175t161.5 66q115 0 171 -85v284h-10q-21 0 -31.5 14t-10.5 32q0 9 4 11t18 2h46q55 -1 55 -56v-588q1 -24 7 -31.5t23 -7.5q10 0 13.5 -0.5t5 -2.5t1.5 -7q0 -38 -55 -38q-66 0 -66 73v2q-55 -79 -170 -79zM447 228 q0 74 -41 125.5t-121 51.5q-77 0 -117.5 -49t-40.5 -127q0 -77 40.5 -125t118.5 -48q81 0 121 50t40 122z" unicode="d" glyph-name="d" horiz-adv-x="606"/>
<glyph d="M454 199h-328q6 -82 51.5 -114t131.5 -32q88 0 160 39q21 10 21 -8q0 -43 -40 -62q-55 -33 -147 -33q-251 0 -251 230q0 122 57.5 186.5t165.5 64.5t162.5 -61.5t54.5 -168.5q0 -41 -38 -41zM278 410q-135 0 -151 -154h295q-2 73 -37.5 113.5t-106.5 40.5z" unicode="e" glyph-name="e" horiz-adv-x="544"/>
<glyph d="M249 738q50 0 69.5 -13t19.5 -40q0 -17 -4 -20t-17 3q-20 10 -49 10q-85 0 -85 -106v-109h89q14 0 18.5 -4t4.5 -19v-15q0 -15 -4 -19t-19 -4h-89v-374q0 -18 -5.5 -23t-22.5 -5h-15q-17 0 -22.5 5t-5.5 23v374h-55q-16 0 -19.5 5t-3.5 25v8q0 15 4.5 19t18.5 4h55v114 q0 76 33.5 118.5t103.5 42.5z" unicode="f" glyph-name="f" horiz-adv-x="314"/>
<glyph d="M500 463q9 0 11.5 -5.5t2.5 -22.5v-403q0 -66 -15 -114.5t-38.5 -76t-58 -44t-66 -21.5t-71.5 -5q-114 0 -175 39q-31 19 -31 47q0 27 25 14q75 -40 165 -40q32 0 55.5 3t51 14.5t45.5 32.5t30.5 59.5t13.5 91.5l1 45q-55 -84 -174 -84q-105 0 -162.5 64t-57.5 172 q0 109 58 175t161 66q117 0 173 -86v18q0 32 13 46.5t43 14.5zM448 229q0 74 -41 125.5t-121 51.5q-77 0 -118 -49t-41 -127q0 -77 41 -125t119 -48q81 0 121 50t40 122z" unicode="g" glyph-name="g" horiz-adv-x="597"/>
<glyph d="M30 714q0 9 4 11t18 2h45q30 0 43.5 -13.5t13.5 -42.5v-270q48 69 150 69q164 0 164 -180v-203q0 -29 6 -38.5t24 -9.5q10 0 13.5 -0.5t5 -2.5t1.5 -7q0 -38 -55 -38q-65 0 -65 73v221q0 123 -114 123q-58 0 -90.5 -31.5t-39.5 -86.5v-262q0 -18 -5.5 -23t-22.5 -5h-15 q-17 0 -22.5 5t-5.5 23v640h-11q-22 0 -32 13.5t-10 32.5z" unicode="h" glyph-name="h" horiz-adv-x="555"/>
<glyph d="M97 463q30 0 43.5 -13.5t13.5 -42.5v-320q0 -29 6 -38.5t24 -9.5q10 0 13.5 -0.5t5 -2.5t1.5 -7q0 -38 -55 -38q-66 0 -66 73v374q0 15 2.5 20t11.5 5zM78 645q0 19 12 30t31 11q20 0 32.5 -11t12.5 -30q0 -18 -12.5 -29.5t-32.5 -11.5q-19 0 -31 11.5t-12 29.5z" unicode="i" glyph-name="i" horiz-adv-x="248"/>
<glyph d="M62 -207q-30 0 -50 12.5t-20 35.5q0 6 2.5 7.5t13.5 0.5h16q59 0 59 47v542q0 15 2.5 20t11.5 5q30 0 43.5 -13.5t13.5 -42.5v-520q0 -43 -23.5 -68.5t-68.5 -25.5zM68 645q0 18 12.5 29.5t31.5 11.5q20 0 32.5 -11t12.5 -30q0 -18 -12.5 -29.5t-32.5 -11.5 q-19 0 -31.5 11.5t-12.5 29.5z" unicode="j" glyph-name="j" horiz-adv-x="236"/>
<glyph d="M101 727q53 -1 53 -56v-396l185 167q27 28 53 28h23q38 0 12 -26l-205 -182l165 -175q27 -31 38 -40t27 -9q11 0 13.5 -1.5t2.5 -7.5q0 -17 -13 -27.5t-34 -10.5q-23 0 -40.5 12.5t-49.5 49.5l-177 194v-219q0 -18 -5 -23t-23 -5h-14q-18 0 -23 5t-5 23v640h-9 q-21 0 -31.5 14t-10.5 32q0 9 4 11t18 2h46z" unicode="k" glyph-name="k" horiz-adv-x="471"/>
<glyph d="M154 87q0 -29 6 -38.5t24 -9.5q10 0 13.5 -0.5t5 -2.5t1.5 -7q0 -38 -54 -38q-66 0 -66 73v604h-7q-21 0 -31.5 14t-10.5 32q0 9 4 11t18 2h46q27 -1 39 -14.5t12 -41.5v-584z" unicode="l" glyph-name="l" horiz-adv-x="250"/>
<glyph d="M112 463q55 -1 55 -56v-7q45 70 144 70q101 0 131 -86q42 86 147 86q152 0 152 -167v-216q0 -29 6 -38.5t24 -9.5q10 0 13 -0.5t5 -2.5t2 -7q0 -38 -55 -38q-66 0 -66 73v225q0 121 -96 121q-51 0 -82 -32t-38 -82v-268q0 -18 -5.5 -23t-22.5 -5h-15q-17 0 -22.5 5 t-5.5 23v268q0 113 -93 113q-57 0 -87.5 -34t-35.5 -89v-258q0 -18 -5.5 -23t-22.5 -5h-14q-18 0 -23 5t-5 23v376h-11q-21 0 -31.5 14t-10.5 32q0 9 4 11t18 2h46z" unicode="m" glyph-name="m" horiz-adv-x="815"/>
<glyph d="M481 92q0 -29 6 -38.5t24 -9.5q10 0 13.5 -0.5t5 -2.5t1.5 -7q0 -38 -55 -38q-66 0 -66 73v216q0 123 -113 123q-60 0 -92.5 -34t-38.5 -93v-253q0 -18 -5 -23t-23 -5h-14q-17 0 -22.5 5t-5.5 23v376h-10q-21 0 -31.5 14t-10.5 32q0 9 4 11t18 2h44q56 0 56 -56v-7 q48 70 150 70q165 0 165 -180v-198z" unicode="n" glyph-name="n" horiz-adv-x="568"/>
<glyph d="M51 230q0 111 63 175.5t177 64.5q113 0 176 -65t63 -175t-63 -173.5t-176 -63.5q-115 0 -177.5 63.5t-62.5 173.5zM124 230q0 -80 44 -127.5t123 -47.5t122 47.5t43 127.5t-43.5 129t-121.5 49q-79 0 -123 -49t-44 -129z" unicode="o" glyph-name="o" horiz-adv-x="581"/>
<glyph d="M336 -8q-115 0 -170 80v-274q0 -18 -5.5 -23t-22.5 -5h-15q-17 0 -22.5 5t-5.5 23v606h-9q-21 0 -31.5 14t-10.5 32q0 9 4 11t19 2h42q30 0 43.5 -13.5t13.5 -42.5v-23q56 85 171 85q104 0 162 -66t58 -175q0 -108 -58 -172t-163 -64zM161 228q0 -72 40 -122t121 -50 q78 0 119 48t41 125q0 78 -41 127t-118 49q-80 0 -121 -51.5t-41 -125.5z" unicode="p" glyph-name="p" horiz-adv-x="609"/>
<glyph d="M498 463q10 0 12.5 -5.5t2.5 -22.5v-637q0 -18 -5.5 -23t-22.5 -5h-15q-17 0 -22.5 5t-5.5 23v273q-55 -79 -170 -79q-105 0 -162.5 64t-57.5 172q0 109 57.5 175t161.5 66q115 0 171 -85v18q0 61 56 61zM447 228q0 74 -41 125.5t-121 51.5q-77 0 -117.5 -49t-40.5 -127 q0 -77 40.5 -125t118.5 -48q81 0 121 50t40 122z" unicode="q" glyph-name="q" horiz-adv-x="596"/>
<glyph d="M280 415q-55 0 -83 -53t-30 -149v-185q0 -18 -5.5 -23t-22.5 -5h-15q-17 0 -22.5 5t-5.5 23v376h-11q-21 0 -31.5 14t-10.5 32q0 9 4 11t19 2h46q55 -1 55 -56v-22q31 90 112 90q65 0 65 -52q0 -12 -3 -15t-13 -1q-27 8 -48 8z" unicode="r" glyph-name="r" horiz-adv-x="361"/>
<glyph d="M236 411q-108 0 -108 -64q0 -29 28.5 -46t69 -26.5t80.5 -23t68.5 -44.5t28.5 -80q0 -64 -45.5 -101.5t-138.5 -37.5q-76 0 -140 23q-21 7 -28 19t-7 34q0 16 6 17t24 -7q67 -29 140 -29q58 0 90 21t32 58q0 32 -28.5 51t-69 29t-81 22.5t-69 42.5t-28.5 78 q0 123 170 123q153 0 153 -61q0 -15 -4.5 -17.5t-23.5 2.5q-64 17 -119 17z" unicode="s" glyph-name="s" horiz-adv-x="449"/>
<glyph d="M134 598q10 0 12.5 -4.5t2.5 -20.5v-110h119q15 0 19 -2t4 -11q0 -20 -17.5 -34t-50.5 -14h-74v-249q0 -56 18 -76t51 -20q40 0 72 18q9 4 12.5 0t3.5 -16q0 -18 -7 -29q-25 -36 -106 -36q-63 0 -88.5 35.5t-25.5 104.5v362q0 102 55 102z" unicode="t" glyph-name="t" horiz-adv-x="327"/>
<glyph d="M105 463q30 0 43.5 -13.5t13.5 -42.5v-237q0 -111 107 -111q63 0 97 32.5t40 87.5v225h-12q-21 0 -31.5 14t-10.5 32q0 9 4 11t19 2h45q30 0 43.5 -13.5t13.5 -42.5v-315q0 -29 6 -38.5t24 -9.5q10 0 13 -0.5t5 -2.5t2 -7q0 -38 -55 -38q-64 0 -66 70q-48 -71 -154 -71 q-161 0 -161 174v235h-12q-21 0 -31.5 14t-10.5 32q0 9 4 11t18 2h46z" unicode="u" glyph-name="u" horiz-adv-x="569"/>
<glyph d="M29 450q0 9 4 11t19 2h46q28 0 40 -11.5t27 -52.5l126 -319l125 292l14 34h-17q-14 0 -24 13t-10 32q0 8 4.5 10t15.5 2h74q39 0 39 -28q0 -14 -13 -43l-169 -373q-5 -12 -10 -15.5t-17 -3.5h-27q-20 0 -28 19l-163 385h-13q-21 0 -32 14t-11 32z" unicode="v" glyph-name="v" horiz-adv-x="549"/>
<glyph d="M21 450q0 9 4 11t19 2h51q27 0 40.5 -13.5t26.5 -49.5l110 -315l106 348q5 18 12.5 24t23.5 6h19q25 0 35 -29l112 -350l112 321h-20q-13 0 -23.5 13t-10.5 32q0 8 4.5 10.5t16.5 2.5h66q48 0 48 -25q0 -15 -14 -48l-137 -365q-6 -15 -11.5 -20t-19.5 -5h-26 q-13 0 -19 4.5t-10 18.5l-114 354l-111 -354q-4 -13 -10.5 -18t-19.5 -5h-24q-13 0 -19 4t-12 18l-143 382h-20q-21 0 -31.5 14t-10.5 32z" unicode="w" glyph-name="w" horiz-adv-x="812"/>
<glyph d="M31 450q0 9 4 11t18 2h45q33 0 60 -40l88 -130l106 136q19 24 25.5 29t20.5 5h32q27 0 4 -31l-151 -193l103 -150q21 -31 34 -40t31 -9q11 0 13.5 -1.5t2.5 -6.5q0 -18 -14.5 -28.5t-38.5 -10.5q-23 0 -41 12t-44 49l-89 130l-124 -160q-13 -16 -20 -20t-19 -4h-29 q-29 0 -4 33l159 205l-112 166h-18q-21 0 -31.5 14t-10.5 32z" unicode="x" glyph-name="x" horiz-adv-x="487"/>
<glyph d="M20 450q0 9 4 11t18 2h52q35 0 50 -36l139 -335l135 316h-18q-35 14 -35 42q0 8 4.5 10.5t16.5 2.5h77q31 0 31 -20q0 -21 -13 -52l-191 -445q-42 -97 -82.5 -136t-99.5 -39q-44 0 -67.5 15.5t-23.5 37.5q0 20 16 15q30 -12 61 -12q16 0 29 3.5t30 14.5t34.5 37t34.5 66 l25 60l-167 396h-18q-21 0 -31.5 14t-10.5 32z" unicode="y" glyph-name="y" horiz-adv-x="531"/>
<glyph d="M43 20v22q0 19 11 31l264 331h-220q-27 0 -40.5 14t-13.5 33q0 8 3.5 10t15.5 2h326q12 0 16 -3.5t4 -15.5v-15q0 -19 -11 -30l-271 -340h276q18 0 23 -3.5t5 -16.5v-19q0 -13 -5 -16.5t-23 -3.5h-333q-19 0 -23 3t-4 17z" unicode="z" glyph-name="z" horiz-adv-x="467"/>
<glyph d="M272 694q0 -20 -17 -34.5t-51 -14.5h-22v-273q0 -45 -42 -69q42 -17 42 -67v-174h-1v-119h70q16 0 20.5 -4.5t4.5 -19.5v-15q0 -15 -4.5 -19.5t-20.5 -4.5h-107q-21 0 -26 5.5t-5 26.5v156h1v169q0 34 -40 34q-17 0 -21.5 4.5t-4.5 19.5v16q0 15 4.5 19.5t21.5 4.5 q40 0 40 36v304q0 22 5 27.5t26 5.5h105q14 0 18 -2.5t4 -11.5z" unicode="{" glyph-name="braceleft" horiz-adv-x="317"/>
<glyph d="M98 -32v753q0 21 5 26.5t26 5.5h6q21 0 26 -5.5t5 -26.5v-761h-1v-148q0 -21 -5 -26.5t-25 -5.5h-7q-21 0 -26 5.5t-5 26.5v156h1z" unicode="|" glyph-name="bar" horiz-adv-x="264"/>
<glyph d="M203 371q0 -36 40 -36q17 0 22 -4.5t5 -19.5v-16q0 -15 -5 -19.5t-22 -4.5q-40 0 -40 -34v-325q0 -21 -5 -26.5t-25 -5.5h-107q-17 0 -21.5 4.5t-4.5 19.5v15q0 15 4.5 19.5t21.5 4.5h69v293q0 50 42 67q-42 24 -42 69v273h-22q-33 0 -50.5 14.5t-17.5 34.5q0 9 4.5 11.5 t18.5 2.5h105q20 0 25 -5.5t5 -27.5v-304z" unicode="}" glyph-name="braceright" horiz-adv-x="317"/>
<glyph d="M81 260q0 46 34 75t84 29q28 0 53.5 -11t42 -23.5t38 -23.5t41.5 -11q25 0 43.5 15t18.5 40q0 16 16 16h27q13 0 13 -17q0 -50 -35 -80t-83 -30q-35 0 -65.5 17.5t-56.5 34.5t-51 17t-44.5 -14t-19.5 -36q0 -21 -15 -21h-27q-14 0 -14 23z" unicode="~" glyph-name="asciitilde" horiz-adv-x="570"/>
<glyph unicode=" " glyph-name="nonbreakingspace" horiz-adv-x="261"/>
<glyph d="M102 -150v439q0 21 5.5 26.5t27.5 5.5h7q22 0 27.5 -5.5t5.5 -26.5v-439q0 -21 -5.5 -26.5t-27.5 -5.5h-7q-22 0 -27.5 5.5t-5.5 26.5zM96 430q0 18 12 29t31 11q20 0 32.5 -10.5t12.5 -29.5t-12.5 -30t-32.5 -11q-19 0 -31 11t-12 30z" unicode="¡" glyph-name="exclamdown" horiz-adv-x="283"/>
<glyph d="M266 0q-17 0 -22 5t-5 23v84q-90 15 -133.5 77t-43.5 158q0 98 45 160.5t132 77.5v90q0 21 6 27t25 6h7q17 0 23.5 -6t6.5 -27v-85q98 -3 135 -52q9 -13 9 -29q0 -14 -4.5 -17.5t-19.5 1.5q-66 33 -122 33q-87 0 -128.5 -48.5t-41.5 -129.5q0 -79 41 -127.5t134 -48.5 q56 0 125 30q20 7 22.5 4t2.5 -13q0 -37 -31 -54q-55 -30 -122 -31v-80q0 -18 -5.5 -23t-23.5 -5h-12z" unicode="¢" glyph-name="cent" horiz-adv-x="519"/>
<glyph d="M101 0q-17 0 -22 4.5t-5 19.5v15q0 14 4.5 18.5t18.5 5.5q73 90 73 172v2h-74q-17 0 -21.5 4.5t-4.5 19.5v16q0 15 4.5 19.5t21.5 4.5h59q-6 14 -28.5 56t-34.5 79t-12 82q0 101 58 150.5t153 49.5q74 0 129.5 -25t55.5 -66q0 -26 -19 -16q-31 15 -47.5 22.5t-47 14.5 t-63.5 7q-67 0 -106 -35t-39 -103q0 -58 37.5 -131.5t40.5 -84.5h78q17 0 21.5 -4.5t4.5 -19.5v-16q0 -15 -4.5 -19.5t-21.5 -4.5h-67v-5q0 -87 -67 -169h286q16 0 21 -4.5t5 -19.5v-15q0 -15 -5 -19.5t-21 -4.5h-361z" unicode="£" glyph-name="sterling" horiz-adv-x="541"/>
<glyph d="M377 190q-37 -17 -75 -17q-63 0 -111 39l5 5l-27 28l-6 -6q-13 16 -22 37q-17 34 -17 75q0 63 39 111l5 -5l27 27l-5 5q14 12 37 23q35 16 74 16q62 0 112 -39l-5 -5l28 -27l5 5q15 -20 22 -36q16 -35 16 -75q0 -62 -39 -112l-5 5l-28 -26l6 -6q-15 -12 -36 -22zM190 285 q19 -30 49 -46.5t63 -16.5q34 0 66 18q63 37 63 111q0 35 -18 67q-38 63 -111 63q-34 0 -66 -18q-64 -39 -64 -113q0 -35 18 -65zM413 489l64 64q11 11 15.5 12t10.5 -5l10 -9q10 -8 -8 -26l-64 -63q-10 13 -28 27zM191 212l-63 -64q-11 -10 -15 -11t-10 4l-10 9q-10 8 7 26 l63 63q10 -13 28 -27zM163 462l-64 64q-17 16 -7 26l9 9q10 10 26 -8l63 -64q-15 -12 -27 -27zM440 239l64 -63q11 -11 12 -15.5t-5 -9.5l-9 -9q-5 -6 -10 -5t-16 12l-63 63q15 12 27 27z" unicode="¤" glyph-name="currency" horiz-adv-x="606"/>
<glyph d="M382 140v-108q0 -21 -5.5 -26.5t-27.5 -5.5h-8q-22 0 -27 5.5t-5 26.5v108h-145q-16 0 -20.5 4t-4.5 20v15q0 15 4.5 19.5t20.5 4.5h145v50h-145q-16 0 -20.5 4t-4.5 19v16q0 15 4.5 19.5t20.5 4.5h119l-189 338l-24 1q-38 13 -38 40q0 8 3.5 10.5t14.5 2.5h71 q25 0 40 -27l189 -349l192 323l-24 1q-34 8 -34 39q0 13 20 13h92q31 0 31 -22q0 -16 -16 -41l-194 -329h110q16 0 20.5 -4.5t4.5 -19.5v-16q0 -15 -4.5 -19t-20.5 -4h-145v-50h145q16 0 20.5 -4.5t4.5 -19.5v-15q0 -16 -4.5 -20t-20.5 -4h-145z" unicode="¥" glyph-name="yen" horiz-adv-x="667"/>
<glyph d="M169 195v-363q0 -21 -5 -26.5t-25 -5.5h-7q-21 0 -26 5.5t-5 26.5v363q0 22 5 27.5t26 5.5h7q20 0 25 -5.5t5 -27.5zM101 315v360q0 22 5 27.5t26 5.5h7q20 0 25 -5.5t5 -27.5v-360q0 -21 -5 -26.5t-25 -5.5h-7q-21 0 -26 5.5t-5 26.5z" unicode="¦" glyph-name="brokenbar" horiz-adv-x="270"/>
<glyph d="M78 360q0 86 77 117q-70 37 -70 112q0 62 45 102t136 40q55 0 104 -14q57 -18 57 -65q0 -16 -6 -18t-20 5q-50 32 -129 32q-53 0 -84.5 -23t-31.5 -57q0 -32 30 -51.5t72.5 -30.5t85.5 -25t73 -44.5t30 -77.5q0 -86 -77 -117q70 -38 70 -112q0 -62 -48.5 -101.5 t-145.5 -39.5q-71 0 -122 14q-57 17 -57 65q0 16 6 18t20 -5q52 -32 147 -32q58 0 94 23.5t36 56.5q0 32 -30 51.5t-73 30.5t-86 25t-73 44t-30 77zM263 289q56 0 85 21t29 53q0 47 -77 68q-22 2 -38 2q-56 0 -85 -20.5t-29 -52.5q0 -26 19.5 -42t58.5 -28q11 -1 37 -1z" unicode="§" glyph-name="section" horiz-adv-x="515"/>
<glyph d="M90 623q0 19 12 30t31 11q20 0 32.5 -11t12.5 -30q0 -18 -12.5 -29.5t-32.5 -11.5q-19 0 -31 11.5t-12 29.5zM271 623q0 19 12 30t31 11q20 0 32.5 -11t12.5 -30q0 -18 -12.5 -29.5t-32.5 -11.5q-19 0 -31 11.5t-12 29.5z" unicode="¨" glyph-name="dieresis" horiz-adv-x="707"/>
<glyph d="M225 344q0 111 49.5 164t132.5 53q61 0 93 -17.5t32 -45.5q0 -14 -2.5 -16t-11.5 4q-39 29 -106 29q-64 0 -99 -42t-35 -128q0 -166 135 -166q63 0 106 28q7 6 10.5 4.5t3.5 -15.5q0 -28 -32 -45.5t-94 -17.5q-182 0 -182 211zM408 4q-157 0 -250.5 99.5t-93.5 247.5 t93.5 247.5t250.5 99.5q158 0 252 -99.5t94 -247.5t-94 -247.5t-252 -99.5zM117 351q0 -127 78 -213.5t213 -86.5q136 0 214 86.5t78 213.5t-78 213.5t-214 86.5q-135 0 -213 -86.5t-78 -213.5z" unicode="©" glyph-name="copyright" horiz-adv-x="818"/>
<glyph d="M81 700q0 7 2.5 9t13.5 2h98q111 0 111 -135v-118q0 -20 3.5 -26t13.5 -6q13 0 13 -7q0 -31 -40 -31q-31 0 -40 28q-34 -29 -100 -29q-47 0 -71.5 26.5t-24.5 75.5t27 72t88 23q28 0 78 -6q-3 87 -58 87h-65q-24 0 -36.5 10.5t-12.5 24.5zM169 429q51 0 84 27v82 q-21 4 -73 4q-68 0 -68 -54q0 -59 57 -59z" unicode="ª" glyph-name="ordfeminine" horiz-adv-x="394"/>
<glyph d="M183 19l-137 212l137 212q9 12 13.5 15.5t13.5 3.5h37q24 0 11 -18l-138 -213l138 -213q12 -18 -11 -18h-37q-9 0 -13.5 3.5t-13.5 15.5zM348 19l-138 212l138 212q8 12 12 15.5t14 3.5h37q24 0 11 -18l-138 -213l138 -213q12 -18 -11 -18h-37q-10 0 -14 3.5t-12 15.5z " unicode="«" glyph-name="guillemotleft" horiz-adv-x="473"/>
<glyph d="M56 419q0 9 4 11.5t18 2.5h458q17 0 22 -4.5t5 -19.5v-210q0 -18 -5.5 -23t-22.5 -5h-15q-17 0 -22.5 5t-5.5 23v170h-368q-33 0 -50.5 15t-17.5 35z" unicode="¬" glyph-name="logicalnot" horiz-adv-x="646"/>
<glyph d="M89 230q-17 0 -22 4.5t-5 19.5v15q0 15 5 19.5t22 4.5h193q17 0 22 -4t5 -20v-15q0 -16 -5 -20t-22 -4h-193z" unicode="­" glyph-name="uni00AD" horiz-adv-x="383"/>
<glyph d="M408 3q-157 0 -250.5 99.5t-93.5 247.5t93.5 247.5t250.5 99.5q158 0 252 -99.5t94 -247.5t-94 -247.5t-252 -99.5zM117 350q0 -127 78 -213t213 -86q136 0 214 86t78 213q0 128 -78 214t-214 86q-135 0 -213 -86t-78 -214zM260 547q0 9 13 9h147q54 0 95 -35t41 -101 q0 -94 -90 -119l54 -107q13 -24 32 -24q11 0 11 -5q0 -14 -6.5 -20t-24.5 -6q-37 0 -58 40l-58 116h-71v-137q0 -11 -3.5 -14.5t-14.5 -3.5h-15q-11 0 -15 3.5t-4 14.5v357h-5q-28 9 -28 32zM408 509h-63v-176h51q50 0 78 22.5t28 65.5q0 44 -28 66t-66 22z" unicode="®" glyph-name="registered" horiz-adv-x="818"/>
<glyph d="M77 606q-16 0 -20.5 4t-4.5 20v5q0 15 4.5 19.5t20.5 4.5h186q16 0 21 -4.5t5 -19.5v-5q0 -15 -5 -19.5t-21 -4.5h-186z" unicode="¯" glyph-name="macron" horiz-adv-x="383"/>
<glyph d="M51 709q0 61 40 99.5t108 38.5q69 0 109 -38.5t40 -99.5q0 -60 -41.5 -98.5t-107.5 -38.5q-65 0 -106.5 38.5t-41.5 98.5zM98 709q0 -44 29.5 -70.5t71.5 -26.5q43 0 72.5 26.5t29.5 70.5q0 40 -27 69t-75 29q-46 0 -73.5 -29t-27.5 -69z" unicode="°" glyph-name="degree" horiz-adv-x="400"/>
<glyph d="M99 325q-17 0 -21.5 4.5t-4.5 19.5v16q0 15 4.5 19t21.5 4h146v163q0 14 4.5 18.5t18.5 4.5h19q14 0 18 -4.5t4 -18.5v-163h152q16 0 20.5 -4t4.5 -19v-16q0 -15 -4.5 -19.5t-20.5 -4.5h-152v-157q0 -14 -4.5 -19t-18.5 -5h-17q-15 0 -19.5 5t-4.5 19v157h-146zM99 25 q-17 0 -21.5 4.5t-4.5 19.5v16q0 15 4.5 19t21.5 4h362q16 0 20.5 -4t4.5 -19v-16q0 -15 -4.5 -19.5t-20.5 -4.5h-362z" unicode="±" glyph-name="plusminus" horiz-adv-x="560"/>
<glyph d="M366 300h-306q-21 0 -21 28q0 54 14.5 95t38.5 65t52 42.5t56.5 32.5t52.5 29t38.5 38.5t14.5 54.5q0 90 -101 90q-32 0 -59 -7t-39.5 -13.5t-38.5 -22.5q-19 -12 -19 12q0 46 42.5 70.5t120.5 24.5q79 0 124.5 -38.5t45.5 -115.5q0 -54 -26.5 -91t-65 -58.5t-77 -41 t-66.5 -52t-30 -79.5h249q14 0 19 -5t5 -19v-15q0 -15 -4.5 -19.5t-19.5 -4.5z" unicode="²" glyph-name="twosuperior" horiz-adv-x="500"/>
<glyph d="M332 452q0 100 -133 100h-30q-15 0 -19.5 4.5t-4.5 19.5v16q0 14 4.5 19t19.5 5h30q99 0 99 80t-109 80q-55 0 -118 -27q-21 -8 -21 13q0 22 15 39q32 38 134 38q81 0 128 -34.5t47 -101.5q0 -86 -83 -114q56 -12 86 -42.5t30 -93.5q0 -162 -205 -162q-81 0 -139 22 q-36 14 -36 55q0 13 4.5 16t20.5 -2q73 -27 145 -27q62 0 98.5 24.5t36.5 72.5z" unicode="³" glyph-name="threesuperior" horiz-adv-x="500"/>
<glyph d="M142 597l87 110q9 12 21 12h47q11 0 13.5 -6.5t-7.5 -15.5l-100 -105q-8 -8 -20 -8h-36q-15 0 -5 13z" unicode="´" glyph-name="acute" horiz-adv-x="833"/>
<glyph d="M170 -229q0 -18 -5.5 -23t-22.5 -5h-14q-18 0 -23 5t-5 23v633h-13q-21 0 -31.5 14t-10.5 32q0 9 4 11t19 2h46q56 0 56 -56v-238q5 -112 114 -112q60 0 92.5 34t38.5 93v220h-12q-21 0 -31.5 14t-10.5 32q0 9 4 11t18 2h46q56 0 56 -56v-315q0 -29 6 -38.5t24 -9.5 q10 0 13.5 -0.5t5 -2.5t1.5 -7q0 -38 -55 -38q-63 0 -65 69q-47 -70 -151 -70q-56 0 -94 22v-246z" unicode="µ" glyph-name="mu" horiz-adv-x="594"/>
<glyph d="M412 677v-650q0 -17 -5 -22t-22 -5h-19q-16 0 -21.5 5t-5.5 22v618h-70v-618q0 -17 -5 -22t-22 -5h-19q-17 0 -22 5t-5 22v371q-83 6 -118 45.5t-35 108.5q0 74 40.5 114.5t134.5 41.5h163q20 0 25.5 -5.5t5.5 -25.5z" unicode="¶" glyph-name="paragraph"/>
<glyph d="M73 280q0 18 12 29t31 11q20 0 32.5 -10.5t12.5 -29.5t-12.5 -30t-32.5 -11q-19 0 -31 11t-12 30z" unicode="·" glyph-name="periodcentered" horiz-adv-x="233"/>
<glyph d="M192 -31v41q0 12 12 12h30q13 0 13 -12v-31q0 -17 16.5 -27t36.5 -15t36.5 -23t16.5 -49q0 -48 -37 -69.5t-85 -21.5q-46 0 -86 14q-10 4 -13 7t-3 11v22q0 9 4.5 10.5t16.5 -1.5q38 -12 72 -12q76 0 76 39q0 19 -16.5 29t-36.5 13.5t-36.5 19t-16.5 43.5z" unicode="¸" glyph-name="cedilla" horiz-adv-x="833"/>
<glyph d="M178 799v-472q0 -17 -5.5 -22t-22.5 -5h-19q-17 0 -22 5t-5 22v441h-17q-32 0 -49.5 15t-17.5 36q0 8 4.5 10t17.5 2h104q21 0 26.5 -5.5t5.5 -26.5z" unicode="¹" glyph-name="onesuperior" horiz-adv-x="500"/>
<glyph d="M340 545q0 -76 -35 -119.5t-106 -43.5q-70 0 -105.5 43.5t-35.5 119.5q0 77 36 121t105 44q70 0 105.5 -44t35.5 -121zM107 546q0 -122 92 -122q47 0 69.5 34.5t22.5 87.5t-22.5 87t-69.5 34q-92 0 -92 -121z" unicode="º" glyph-name="ordmasculine" horiz-adv-x="399"/>
<glyph d="M262 231l-137 -212q-9 -12 -13 -15.5t-13 -3.5h-37q-23 0 -11 18l137 213l-137 213q-13 18 11 18h37q9 0 13 -3.5t13 -15.5zM427 231l-138 -212q-9 -12 -13 -15.5t-13 -3.5h-37q-23 0 -11 18l138 213l-138 213q-13 18 11 18h37q9 0 13 -3.5t13 -15.5z" unicode="»" glyph-name="guillemotright" horiz-adv-x="473"/>
<glyph d="M598 106q-30 0 -15 29l170 339h-11q-12 0 -25 13.5t-13 31.5q0 13 21 13h54q52 0 52 -30q0 -17 -15 -47l-142 -287h159v73q0 23 5.5 29t26.5 6h8q22 0 27.5 -6t5.5 -29v-72h47q15 0 19.5 -4.5t4.5 -18.5v-17q0 -14 -4.5 -18.5t-19.5 -4.5h-47v-74q0 -21 -6 -26.5 t-27 -5.5h-8q-21 0 -26.5 5.5t-5.5 26.5v74h-235zM588 673l-289 -649q-10 -24 -35 -24h-22q-18 0 -22 7t4 26l289 651q7 15 13 19.5t19 4.5h30q16 0 19 -7t-6 -28zM178 669v-472q0 -17 -5.5 -22t-22.5 -5h-19q-17 0 -22 5t-5 22v441h-17q-32 0 -49.5 15t-17.5 36q0 8 4.5 10 t17.5 2h104q21 0 26.5 -5.5t5.5 -26.5z" unicode="¼" glyph-name="onequarter" horiz-adv-x="1000"/>
<glyph d="M924 0h-306q-21 0 -21 28q0 54 14.5 95t38.5 65t52 42.5t56.5 32.5t52.5 29t38.5 38.5t14.5 54.5q0 90 -101 90q-32 0 -59 -7t-39.5 -13.5t-38.5 -22.5q-19 -12 -19 12q0 46 42.5 70.5t120.5 24.5q79 0 124.5 -38.5t45.5 -115.5q0 -54 -26.5 -91t-65 -58.5t-77 -41 t-66.5 -52t-30 -79.5h249q14 0 19 -5t5 -19v-15q0 -15 -4.5 -19.5t-19.5 -4.5zM588 673l-289 -649q-10 -24 -35 -24h-22q-18 0 -22 7t4 26l289 651q7 15 13 19.5t19 4.5h30q16 0 19 -7t-6 -28zM178 669v-472q0 -17 -5.5 -22t-22.5 -5h-19q-17 0 -22 5t-5 22v441h-17 q-32 0 -49.5 15t-17.5 36q0 8 4.5 10t17.5 2h104q21 0 26.5 -5.5t5.5 -26.5z" unicode="½" glyph-name="onehalf" horiz-adv-x="988"/>
<glyph d="M332 322q0 100 -133 100h-30q-15 0 -19.5 4.5t-4.5 19.5v16q0 14 4.5 19t19.5 5h30q99 0 99 80t-109 80q-55 0 -118 -27q-21 -8 -21 13q0 22 15 39q32 38 134 38q81 0 128 -34.5t47 -101.5q0 -86 -83 -114q56 -12 86 -42.5t30 -93.5q0 -162 -205 -162q-81 0 -139 22 q-36 14 -36 55q0 13 4.5 16t20.5 -2q73 -27 145 -27q62 0 98.5 24.5t36.5 72.5zM1097 241v-72h47q15 0 19.5 -4.5t4.5 -18.5v-17q0 -14 -4.5 -18.5t-19.5 -4.5h-47v-74q0 -21 -6 -26.5t-27 -5.5h-8q-21 0 -26.5 5.5t-5.5 26.5v74h-235q-30 0 -15 29l170 339h-11 q-12 0 -25 13.5t-13 31.5q0 13 21 13h54q52 0 52 -30q0 -17 -15 -47l-142 -287h159v73q0 23 5.5 29t26.5 6h8q22 0 27.5 -6t5.5 -29zM780 673l-289 -649q-10 -24 -35 -24h-22q-18 0 -22 7t4 26l289 651q7 15 13 19.5t19 4.5h30q16 0 19 -7t-6 -28z" unicode="¾" glyph-name="threequarters" horiz-adv-x="1191"/>
<glyph d="M259 -150q80 0 156 41q12 7 16.5 4t4.5 -17q0 -41 -52.5 -66t-132.5 -25q-97 0 -150 47.5t-53 140.5q0 48 19.5 83t46.5 56t54.5 40.5t47 49.5t19.5 71v34q0 16 16 16h43q15 0 15 -16v-29q0 -52 -19.5 -90.5t-46.5 -61.5t-54.5 -43t-47 -47t-19.5 -62q0 -60 34 -93 t103 -33zM231 430q0 18 12 29t31 11q20 0 32.5 -10.5t12.5 -29.5t-12.5 -30t-32.5 -11q-19 0 -31 11t-12 30z" unicode="¿" glyph-name="questiondown" horiz-adv-x="485"/>
<glyph d="M221 695q0 9 4 11t18 2h107q15 0 20.5 -4.5t10.5 -16.5l256 -664q9 -23 -15 -23h-31q-15 0 -20.5 4t-11.5 19l-68 180h-310l-68 -181q-5 -14 -11.5 -18t-21.5 -4h-28q-25 0 -16 23l244 631h-21q-38 10 -38 41zM337 617l-133 -351h264zM291 871l97 -110q3 -3 3 -6 t-2.5 -4.5t-5.5 -1.5h-41q-12 0 -20 8l-109 107q-7 7 -5 13t11 6h47q16 0 25 -12z" unicode="À" glyph-name="Agrave" horiz-adv-x="674"/>
<glyph d="M221 695q0 9 4 11t18 2h107q15 0 20.5 -4.5t10.5 -16.5l256 -664q9 -23 -15 -23h-31q-15 0 -20.5 4t-11.5 19l-68 180h-310l-68 -181q-5 -14 -11.5 -18t-21.5 -4h-28q-25 0 -16 23l244 631h-21q-38 10 -38 41zM337 617l-133 -351h264zM278 768l87 110q9 12 21 12h47 q11 0 13.5 -6.5t-7.5 -15.5l-100 -105q-8 -8 -20 -8h-36q-15 0 -5 13z" unicode="Á" glyph-name="Aacute" horiz-adv-x="674"/>
<glyph d="M221 695q0 9 4 11t18 2h107q15 0 20.5 -4.5t10.5 -16.5l256 -664q9 -23 -15 -23h-31q-15 0 -20.5 4t-11.5 19l-68 180h-310l-68 -181q-5 -14 -11.5 -18t-21.5 -4h-28q-25 0 -16 23l244 631h-21q-38 10 -38 41zM337 617l-133 -351h264zM337 831l-75 -64q-14 -12 -29 -12 h-30q-12 0 -16 5.5t3 13.5l116 98q7 7 17 7h28q10 0 17 -7l116 -98q7 -7 3.5 -13t-14.5 -6h-32q-17 0 -29 12z" unicode="Â" glyph-name="Acircumflex" horiz-adv-x="674"/>
<glyph d="M221 695q0 9 4 11t18 2h107q15 0 20.5 -4.5t10.5 -16.5l256 -664q9 -23 -15 -23h-31q-15 0 -20.5 4t-11.5 19l-68 180h-310l-68 -181q-5 -14 -11.5 -18t-21.5 -4h-28q-25 0 -16 23l244 631h-21q-38 10 -38 41zM337 617l-133 -351h264zM196 781q0 34 19.5 57.5t52.5 23.5 t69 -21t52 -21q30 0 33 30q2 10 15 10h22q15 0 15 -14q0 -38 -21.5 -60t-52.5 -22q-33 0 -68 21t-52 21q-28 0 -32 -29q-1 -10 -16 -10h-22q-14 0 -14 14z" unicode="Ã" glyph-name="Atilde" horiz-adv-x="674"/>
<glyph d="M221 695q0 9 4 11t18 2h107q15 0 20.5 -4.5t10.5 -16.5l256 -664q9 -23 -15 -23h-31q-15 0 -20.5 4t-11.5 19l-68 180h-310l-68 -181q-5 -14 -11.5 -18t-21.5 -4h-28q-25 0 -16 23l244 631h-21q-38 10 -38 41zM337 617l-133 -351h264zM205 794q0 19 12 30t31 11 q20 0 32.5 -11t12.5 -30q0 -18 -12.5 -29.5t-32.5 -11.5q-19 0 -31 11.5t-12 29.5zM386 794q0 19 12 30t31 11q20 0 32.5 -11t12.5 -30q0 -18 -12.5 -29.5t-32.5 -11.5q-19 0 -31 11.5t-12 29.5z" unicode="Ä" glyph-name="Adieresis" horiz-adv-x="674"/>
<glyph d="M221 695q0 9 4 11t18 2h107q15 0 20.5 -4.5t10.5 -16.5l256 -664q9 -23 -15 -23h-31q-15 0 -20.5 4t-11.5 19l-68 180h-310l-68 -181q-5 -14 -11.5 -18t-21.5 -4h-28q-25 0 -16 23l244 631h-21q-38 10 -38 41zM337 617l-133 -351h264zM222 859q0 48 32 79.5t83 31.5 q52 0 84 -31t32 -80q0 -47 -32.5 -78t-83.5 -31q-50 0 -82.5 31t-32.5 78zM278 859q0 -28 17 -44t42 -16t42.5 16t17.5 44q0 26 -16.5 44t-43.5 18t-43 -18t-16 -44z" unicode="Å" glyph-name="Aring" horiz-adv-x="674"/>
<glyph d="M241 695q0 9 4.5 11t18.5 2h135l-1 -2l8 2h333q14 0 18.5 -2t4.5 -11q0 -21 -17.5 -35.5t-50.5 -14.5h-250v-245h235q14 0 18.5 -2t4.5 -11q0 -21 -17 -35.5t-51 -14.5h-190v-274h297q17 0 22 -4.5t5 -19.5v-15q0 -15 -5 -19.5t-22 -4.5h-339q-19 0 -24.5 5t-5.5 22v176 h-202l-85 -188q-7 -15 -23 -15h-40q-13 0 -16 4t2 14l293 636h-20q-40 9 -40 41zM198 266h174v382z" unicode="Æ" glyph-name="AE" horiz-adv-x="815"/>
<glyph d="M372 -36v25q-152 9 -232 98.5t-80 259.5q0 185 90 283t263 98q139 0 189 -55q18 -18 18 -45q0 -14 -4.5 -15.5t-20.5 6.5q-90 46 -178 46q-142 0 -212 -85t-70 -233q0 -141 68.5 -219t212.5 -78q42 0 79 6.5t58 14t56 21.5q20 9 20 -11q0 -19 -11 -33q-41 -56 -191 -61 v-13q0 -17 16.5 -27t36.5 -15t36.5 -23t16.5 -49q0 -48 -37 -69.5t-85 -21.5q-46 0 -86 14q-10 4 -13 7t-3 11v22q0 9 4.5 10.5t16.5 -1.5q38 -12 72 -12q76 0 76 39q0 19 -16.5 29t-36.5 13.5t-36.5 19t-16.5 43.5z" unicode="Ç" glyph-name="Ccedilla" horiz-adv-x="666"/>
<glyph d="M51 695q0 9 4 11t18 2h411q14 0 18 -2t4 -11q0 -21 -17 -35.5t-51 -14.5h-257v-245h245q14 0 18 -2t4 -11q0 -21 -17 -35.5t-50 -14.5h-200v-274h293q16 0 21 -4.5t5 -19.5v-15q0 -15 -5 -19.5t-21 -4.5h-336q-18 0 -23.5 5t-5.5 22v627h-21q-37 10 -37 41zM242 871 l97 -110q4 -5 2.5 -8.5t-7.5 -3.5h-41q-12 0 -20 8l-109 107q-7 7 -5 13t11 6h47q16 0 25 -12z" unicode="È" glyph-name="Egrave" horiz-adv-x="533"/>
<glyph d="M50 695q0 9 4.5 11t18.5 2h410q14 0 18.5 -2t4.5 -11q0 -21 -17.5 -35.5t-50.5 -14.5h-257v-245h245q14 0 18 -2t4 -11q0 -21 -17 -35.5t-51 -14.5h-199v-274h292q17 0 22 -4.5t5 -19.5v-15q0 -15 -5 -19.5t-22 -4.5h-336q-18 0 -23.5 5t-5.5 22v627h-20q-38 10 -38 41z M229 768l87 110q9 12 21 12h47q11 0 13.5 -6.5t-7.5 -15.5l-100 -105q-8 -8 -20 -8h-36q-15 0 -5 13z" unicode="É" glyph-name="Eacute" horiz-adv-x="533"/>
<glyph d="M50 695q0 9 4.5 11t18.5 2h410q14 0 18.5 -2t4.5 -11q0 -21 -17.5 -35.5t-50.5 -14.5h-257v-245h245q14 0 18 -2t4 -11q0 -21 -17 -35.5t-51 -14.5h-199v-274h292q17 0 22 -4.5t5 -19.5v-15q0 -15 -5 -19.5t-22 -4.5h-336q-18 0 -23.5 5t-5.5 22v627h-20q-38 10 -38 41z M287 831l-75 -64q-14 -12 -29 -12h-30q-12 0 -16 5.5t3 13.5l116 98q7 7 17 7h28q10 0 17 -7l116 -98q7 -7 3.5 -13t-14.5 -6h-32q-17 0 -29 12z" unicode="Ê" glyph-name="Ecircumflex" horiz-adv-x="533"/>
<glyph d="M51 695q0 9 4 11t18 2h411q14 0 18 -2t4 -11q0 -21 -17 -35.5t-51 -14.5h-257v-245h245q14 0 18 -2t4 -11q0 -21 -17 -35.5t-50 -14.5h-200v-274h293q16 0 21 -4.5t5 -19.5v-15q0 -15 -5 -19.5t-21 -4.5h-336q-18 0 -23.5 5t-5.5 22v627h-21q-37 10 -37 41zM337 794 q0 19 12 30t31 11q20 0 32.5 -11t12.5 -30q0 -18 -12.5 -29.5t-32.5 -11.5q-19 0 -31 11.5t-12 29.5zM156 794q0 19 12 30t31 11q20 0 32.5 -11t12.5 -30q0 -18 -12.5 -29.5t-32.5 -11.5q-19 0 -31 11.5t-12 29.5z" unicode="Ë" glyph-name="Edieresis" horiz-adv-x="533"/>
<glyph d="M50 695q0 9 4.5 11t18.5 2h77q20 0 25.5 -5.5t5.5 -25.5v-650q0 -17 -5.5 -22t-21.5 -5h-19q-17 0 -22 5t-5 22v627h-20q-38 10 -38 41zM99 871l97 -110q3 -3 3 -6t-2.5 -4.5t-5.5 -1.5h-41q-12 0 -20 8l-109 107q-7 7 -5 13t11 6h47q16 0 25 -12z" unicode="Ì" glyph-name="Igrave" horiz-adv-x="283"/>
<glyph d="M50 695q0 9 4.5 11t18.5 2h77q20 0 25.5 -5.5t5.5 -25.5v-650q0 -17 -5.5 -22t-21.5 -5h-19q-17 0 -22 5t-5 22v627h-20q-38 10 -38 41zM86 768l87 110q9 12 21 12h47q11 0 13.5 -6.5t-7.5 -15.5l-100 -105q-8 -8 -20 -8h-36q-15 0 -5 13z" unicode="Í" glyph-name="Iacute" horiz-adv-x="283"/>
<glyph d="M50 695q0 9 4.5 11t18.5 2h77q20 0 25.5 -5.5t5.5 -25.5v-650q0 -17 -5.5 -22t-21.5 -5h-19q-17 0 -22 5t-5 22v627h-20q-38 10 -38 41zM144 831l-75 -64q-14 -12 -29 -12h-30q-12 0 -16 5.5t3 13.5l116 98q7 7 17 7h28q10 0 17 -7l116 -98q7 -7 3.5 -13t-14.5 -6h-32 q-17 0 -29 12z" unicode="Î" glyph-name="Icircumflex" horiz-adv-x="283"/>
<glyph d="M50 695q0 9 4.5 11t18.5 2h77q20 0 25.5 -5.5t5.5 -25.5v-650q0 -17 -5.5 -22t-21.5 -5h-19q-17 0 -22 5t-5 22v627h-20q-38 10 -38 41zM194 794q0 19 12 30t31 11q20 0 32.5 -11t12.5 -30q0 -18 -12.5 -29.5t-32.5 -11.5q-19 0 -31 11.5t-12 29.5zM13 794q0 19 12 30 t31 11q20 0 32.5 -11t12.5 -30q0 -18 -12.5 -29.5t-32.5 -11.5q-19 0 -31 11.5t-12 29.5z" unicode="Ï" glyph-name="Idieresis" horiz-adv-x="283"/>
<glyph d="M629 355q0 -164 -81.5 -259.5t-242.5 -95.5h-156q-18 0 -23.5 5t-5.5 22v298h-69q-16 0 -21 4.5t-5 19.5v16q0 15 4.5 19t21.5 4h69v266h-20q-38 10 -38 41q0 9 4 11t18 2h221q160 0 242 -94.5t82 -258.5zM300 645h-107v-257h73q17 0 21.5 -4t4.5 -19v-16q0 -15 -5 -19.5 t-21 -4.5h-73v-262h107q88 0 146.5 41.5t82 105t23.5 146.5q0 130 -61 209.5t-191 79.5z" unicode="Ð" glyph-name="Eth" horiz-adv-x="690"/>
<glyph d="M50 695q0 9 4 11t18 2h87q25 0 37.5 -8t29.5 -38l312 -530v545q0 20 5 25.5t25 5.5h12q20 0 25 -5.5t5 -25.5v-650q0 -17 -5 -22t-21 -5h-27q-19 0 -28 14l-348 581v-568q0 -17 -5 -22t-21 -5h-19q-17 0 -22 5t-5 22v627h-22q-37 10 -37 41zM222 781q0 34 19.5 57.5 t52.5 23.5t69 -21t52 -21q30 0 33 30q2 10 15 10h22q15 0 15 -14q0 -38 -21.5 -60t-52.5 -22q-33 0 -68 21t-52 21q-28 0 -32 -29q-1 -10 -16 -10h-22q-14 0 -14 14z" unicode="Ñ" glyph-name="Ntilde" horiz-adv-x="713"/>
<glyph d="M748 353q0 -167 -86 -266.5t-258 -99.5t-258.5 99.5t-86.5 266.5q0 169 88 271.5t257 102.5q170 0 257 -102.5t87 -271.5zM134 354q0 -132 66 -218t204 -86q72 0 125.5 24.5t84 68t45 96t14.5 115.5q0 64 -15 118t-45.5 98t-84 69t-124.5 25q-94 0 -156.5 -44.5t-88 -112 t-25.5 -153.5zM358 871l97 -110q4 -5 2.5 -8.5t-7.5 -3.5h-41q-12 0 -20 8l-109 107q-7 7 -5 13t11 6h47q16 0 25 -12z" unicode="Ò" glyph-name="Ograve" horiz-adv-x="807"/>
<glyph d="M748 353q0 -167 -86 -266.5t-258 -99.5t-258.5 99.5t-86.5 266.5q0 169 88 271.5t257 102.5q170 0 257 -102.5t87 -271.5zM134 354q0 -132 66 -218t204 -86q72 0 125.5 24.5t84 68t45 96t14.5 115.5q0 64 -15 118t-45.5 98t-84 69t-124.5 25q-94 0 -156.5 -44.5t-88 -112 t-25.5 -153.5zM345 768l87 110q9 12 21 12h47q11 0 13.5 -6.5t-7.5 -15.5l-100 -105q-8 -8 -20 -8h-36q-15 0 -5 13z" unicode="Ó" glyph-name="Oacute" horiz-adv-x="807"/>
<glyph d="M748 353q0 -167 -86 -266.5t-258 -99.5t-258.5 99.5t-86.5 266.5q0 169 88 271.5t257 102.5q170 0 257 -102.5t87 -271.5zM134 354q0 -132 66 -218t204 -86q72 0 125.5 24.5t84 68t45 96t14.5 115.5q0 64 -15 118t-45.5 98t-84 69t-124.5 25q-94 0 -156.5 -44.5t-88 -112 t-25.5 -153.5zM404 831l-75 -64q-14 -12 -29 -12h-30q-12 0 -16 5.5t3 13.5l116 98q7 7 17 7h28q10 0 17 -7l116 -98q7 -7 3.5 -13t-14.5 -6h-32q-17 0 -29 12z" unicode="Ô" glyph-name="Ocircumflex" horiz-adv-x="807"/>
<glyph d="M748 353q0 -167 -86 -266.5t-258 -99.5t-258.5 99.5t-86.5 266.5q0 169 88 271.5t257 102.5q170 0 257 -102.5t87 -271.5zM134 354q0 -132 66 -218t204 -86q72 0 125.5 24.5t84 68t45 96t14.5 115.5q0 64 -15 118t-45.5 98t-84 69t-124.5 25q-94 0 -156.5 -44.5t-88 -112 t-25.5 -153.5zM263 781q0 34 19.5 57.5t52.5 23.5t69 -21t52 -21q30 0 33 30q2 10 15 10h22q15 0 15 -14q0 -38 -21.5 -60t-52.5 -22q-33 0 -68 21t-52 21q-28 0 -32 -29q-1 -10 -16 -10h-22q-14 0 -14 14z" unicode="Õ" glyph-name="Otilde" horiz-adv-x="807"/>
<glyph d="M748 353q0 -167 -86 -266.5t-258 -99.5t-258.5 99.5t-86.5 266.5q0 169 88 271.5t257 102.5q170 0 257 -102.5t87 -271.5zM134 354q0 -132 66 -218t204 -86q72 0 125.5 24.5t84 68t45 96t14.5 115.5q0 64 -15 118t-45.5 98t-84 69t-124.5 25q-94 0 -156.5 -44.5t-88 -112 t-25.5 -153.5zM272 794q0 19 12 30t31 11q20 0 32.5 -11t12.5 -30q0 -18 -12.5 -29.5t-32.5 -11.5q-19 0 -31 11.5t-12 29.5zM453 794q0 19 12 30t31 11q20 0 32.5 -11t12.5 -30q0 -18 -12.5 -29.5t-32.5 -11.5q-19 0 -31 11.5t-12 29.5z" unicode="Ö" glyph-name="Odieresis" horiz-adv-x="807"/>
<glyph d="M195 156h-1l-47 -47q-14 -15 -21 -16t-18 10l-10 10q-11 11 -10.5 18t15.5 22l115 115l-65 66l-49 50q-14 14 -15 20.5t10 18.5l10 10q11 11 18.5 10t21.5 -15l91 -92l23 -23l65 66l49 49q14 14 22 15t18 -10l10 -10q11 -11 10 -18t-15 -21l-115 -115l68 -67l49 -49 q14 -15 14.5 -22.5t-10.5 -17.5l-10 -10q-11 -11 -18 -10t-21 16l-49 48l-67 67z" unicode="×" glyph-name="multiply"/>
<glyph d="M748 353q0 -167 -86 -266.5t-258 -99.5q-95 0 -167 33l-19 -30q-9 -14 -15.5 -18.5t-18.5 -4.5h-41q-27 0 -11 24l42 68q-115 96 -115 294q0 169 88 271.5t257 102.5q95 0 169 -36l13 21q14 23 20.5 28.5t18.5 5.5h39q29 0 13 -24l-44 -70q115 -100 115 -299zM134 354 q0 -153 79 -233l324 513q-57 30 -133 30q-94 0 -156.5 -44.5t-88 -112t-25.5 -153.5zM673 354q0 153 -78 237l-322 -514q56 -27 131 -27q72 0 125.5 24.5t84 68t45 96t14.5 115.5z" unicode="Ø" glyph-name="Oslash" horiz-adv-x="807"/>
<glyph d="M179 675v-440q0 -83 42.5 -134.5t129.5 -51.5q95 0 138.5 51t43.5 135v419h-21q-38 10 -38 41q0 9 4.5 11t18.5 2h76q22 0 27 -5.5t5 -27.5v-441q0 -115 -63 -181t-191 -66q-122 0 -183.5 66.5t-61.5 180.5v420h-20q-38 10 -38 41q0 9 4.5 11t18.5 2h76q22 0 27 -5.5 t5 -27.5zM306 871l97 -110q4 -5 2.5 -8.5t-7.5 -3.5h-41q-12 0 -20 8l-109 107q-7 7 -5 13t11 6h47q16 0 25 -12z" unicode="Ù" glyph-name="Ugrave" horiz-adv-x="700"/>
<glyph d="M179 675v-440q0 -83 42.5 -134.5t129.5 -51.5q95 0 138.5 51t43.5 135v419h-21q-38 10 -38 41q0 9 4.5 11t18.5 2h76q22 0 27 -5.5t5 -27.5v-441q0 -115 -63 -181t-191 -66q-122 0 -183.5 66.5t-61.5 180.5v420h-20q-38 10 -38 41q0 9 4.5 11t18.5 2h76q22 0 27 -5.5 t5 -27.5zM294 768l87 110q9 12 21 12h47q11 0 13.5 -6.5t-7.5 -15.5l-100 -105q-8 -8 -20 -8h-36q-15 0 -5 13z" unicode="Ú" glyph-name="Uacute" horiz-adv-x="701"/>
<glyph d="M178 675v-440q0 -83 42.5 -134.5t129.5 -51.5q95 0 138.5 51t43.5 135v419h-21q-37 10 -37 41q0 9 4 11t18 2h76q22 0 27 -5.5t5 -27.5v-441q0 -115 -63 -181t-191 -66q-122 0 -183 66.5t-61 180.5v420h-21q-37 10 -37 41q0 9 4 11t18 2h76q22 0 27 -5.5t5 -27.5z M352 831l-75 -64q-14 -12 -29 -12h-30q-12 0 -16 5.5t3 13.5l116 98q7 7 17 7h28q10 0 17 -7l116 -98q7 -7 3.5 -13t-14.5 -6h-32q-17 0 -29 12z" unicode="Û" glyph-name="Ucircumflex" horiz-adv-x="700"/>
<glyph d="M179 675v-440q0 -83 42.5 -134.5t129.5 -51.5q95 0 138.5 51t43.5 135v419h-21q-38 10 -38 41q0 9 4.5 11t18.5 2h76q22 0 27 -5.5t5 -27.5v-441q0 -115 -63 -181t-191 -66q-122 0 -183.5 66.5t-61.5 180.5v420h-20q-38 10 -38 41q0 9 4.5 11t18.5 2h76q22 0 27 -5.5 t5 -27.5zM402 794q0 19 12 30t31 11q20 0 32.5 -11t12.5 -30q0 -18 -12.5 -29.5t-32.5 -11.5q-19 0 -31 11.5t-12 29.5zM221 794q0 19 12 30t31 11q20 0 32.5 -11t12.5 -30q0 -18 -12.5 -29.5t-32.5 -11.5q-19 0 -31 11.5t-12 29.5z" unicode="Ü" glyph-name="Udieresis" horiz-adv-x="701"/>
<glyph d="M130 681l189 -349l193 323l-25 1q-33 8 -33 39q0 13 20 13h91q31 0 31 -22q0 -15 -16 -41l-225 -383v-230q0 -21 -5.5 -26.5t-27.5 -5.5h-8q-22 0 -27 5.5t-5 26.5v232l-219 390l-24 1q-37 12 -37 40q0 8 3 10.5t14 2.5h72q24 0 39 -27zM267 763l87 110q9 12 21 12h47 q11 0 13.5 -6.5t-7.5 -15.5l-100 -105q-8 -8 -20 -8h-36q-15 0 -5 13z" unicode="Ý" glyph-name="Yacute" horiz-adv-x="629"/>
<glyph d="M168 465h90q43 0 84 -14t75.5 -41.5t55.5 -73t21 -103.5q0 -111 -73 -170.5t-173 -59.5h-80v-23h-1v-148q0 -21 -5 -26.5t-25 -5.5h-7q-21 0 -26 5.5t-5 26.5v156h1v687q0 22 5 27.5t26 5.5h6q21 0 26 -5.5t5 -27.5v-210zM240 400h-72v-332h66q76 0 129.5 43t53.5 125 q0 81 -51.5 122.5t-125.5 41.5z" unicode="Þ" glyph-name="Thorn" horiz-adv-x="539"/>
<glyph d="M26 695q0 9 4 11t18 2h247q98 0 147.5 -49t49.5 -126q0 -127 -105 -160q155 -24 155 -178q0 -90 -56.5 -142.5t-168.5 -52.5h-104q-16 0 -20.5 4.5t-4.5 19.5v15q0 15 4.5 19.5t20.5 4.5h97q154 3 154 138q0 136 -162 136h-55q-16 0 -20.5 4.5t-4.5 19.5v15 q0 15 4.5 19.5t20.5 4.5h42q61 0 93 32.5t32 90.5q0 122 -137 122h-120v-818q0 -17 -5.5 -22t-21.5 -5h-19q-17 0 -22 5t-5 22v827h-21q-37 10 -37 41z" unicode="ß" glyph-name="germandbls" horiz-adv-x="592"/>
<glyph d="M73 450q0 9 4 11t19 2h136q110 0 158.5 -44t48.5 -140v-198q1 -22 7 -29.5t23 -7.5q10 0 13.5 -0.5t5 -2.5t1.5 -7q0 -38 -55 -38q-53 0 -64 48q-64 -50 -172 -50q-154 0 -154 135q0 66 43 94.5t136 28.5q73 0 145 -9v26q0 77 -31 105t-104 28h-102q-27 0 -42.5 13.5 t-15.5 34.5zM368 188q-48 8 -131 8q-64 0 -93.5 -13.5t-29.5 -54.5q0 -42 25.5 -59.5t75.5 -17.5q92 0 153 46v91zM204 700l97 -110q4 -4 2.5 -8t-7.5 -4h-41q-12 0 -20 8l-109 107q-7 7 -5 13t11 6h47q16 0 25 -12z" unicode="à" glyph-name="agrave"/>
<glyph d="M73 450q0 9 4 11t19 2h136q110 0 158.5 -44t48.5 -140v-198q1 -22 7 -29.5t23 -7.5q10 0 13.5 -0.5t5 -2.5t1.5 -7q0 -38 -55 -38q-53 0 -64 48q-64 -50 -172 -50q-154 0 -154 135q0 66 43 94.5t136 28.5q73 0 145 -9v26q0 77 -31 105t-104 28h-102q-27 0 -42.5 13.5 t-15.5 34.5zM368 188q-48 8 -131 8q-64 0 -93.5 -13.5t-29.5 -54.5q0 -42 25.5 -59.5t75.5 -17.5q92 0 153 46v91zM192 597l87 110q9 12 21 12h47q11 0 13.5 -6.5t-7.5 -15.5l-100 -105q-8 -8 -20 -8h-36q-15 0 -5 13z" unicode="á" glyph-name="aacute"/>
<glyph d="M73 450q0 9 4 11t19 2h136q110 0 158.5 -44t48.5 -140v-198q1 -22 7 -29.5t23 -7.5q10 0 13.5 -0.5t5 -2.5t1.5 -7q0 -38 -55 -38q-53 0 -64 48q-64 -50 -172 -50q-154 0 -154 135q0 66 43 94.5t136 28.5q73 0 145 -9v26q0 77 -31 105t-104 28h-102q-27 0 -42.5 13.5 t-15.5 34.5zM368 188q-48 8 -131 8q-64 0 -93.5 -13.5t-29.5 -54.5q0 -42 25.5 -59.5t75.5 -17.5q92 0 153 46v91zM250 660l-75 -64q-14 -12 -29 -12h-30q-12 0 -16 6t3 13l116 98q7 7 17 7h28q10 0 17 -7l116 -98q7 -7 3.5 -13t-14.5 -6h-32q-17 0 -29 12z" unicode="â" glyph-name="acircumflex"/>
<glyph d="M73 450q0 9 4 11t19 2h136q110 0 158.5 -44t48.5 -140v-198q1 -22 7 -29.5t23 -7.5q10 0 13.5 -0.5t5 -2.5t1.5 -7q0 -38 -55 -38q-53 0 -64 48q-64 -50 -172 -50q-154 0 -154 135q0 66 43 94.5t136 28.5q73 0 145 -9v26q0 77 -31 105t-104 28h-102q-27 0 -42.5 13.5 t-15.5 34.5zM368 188q-48 8 -131 8q-64 0 -93.5 -13.5t-29.5 -54.5q0 -42 25.5 -59.5t75.5 -17.5q92 0 153 46v91zM110 610q0 34 19.5 57.5t52.5 23.5t69 -21t52 -21q30 0 33 30q2 10 15 10h22q15 0 15 -14q0 -38 -21.5 -60t-52.5 -22q-33 0 -68 21t-52 21q-28 0 -32 -29 q-1 -10 -16 -10h-22q-14 0 -14 14z" unicode="ã" glyph-name="atilde"/>
<glyph d="M73 450q0 9 4 11t19 2h136q110 0 158.5 -44t48.5 -140v-198q1 -22 7 -29.5t23 -7.5q10 0 13.5 -0.5t5 -2.5t1.5 -7q0 -38 -55 -38q-53 0 -64 48q-64 -50 -172 -50q-154 0 -154 135q0 66 43 94.5t136 28.5q73 0 145 -9v26q0 77 -31 105t-104 28h-102q-27 0 -42.5 13.5 t-15.5 34.5zM368 188q-48 8 -131 8q-64 0 -93.5 -13.5t-29.5 -54.5q0 -42 25.5 -59.5t75.5 -17.5q92 0 153 46v91zM119 623q0 19 12 30t31 11q20 0 32.5 -11t12.5 -30q0 -18 -12.5 -29.5t-32.5 -11.5q-19 0 -31 11.5t-12 29.5zM300 623q0 19 12 30t31 11q20 0 32.5 -11 t12.5 -30q0 -18 -12.5 -29.5t-32.5 -11.5q-19 0 -31 11.5t-12 29.5z" unicode="ä" glyph-name="adieresis"/>
<glyph d="M73 450q0 9 4 11t19 2h136q110 0 158.5 -44t48.5 -140v-198q1 -22 7 -29.5t23 -7.5q10 0 13.5 -0.5t5 -2.5t1.5 -7q0 -38 -55 -38q-53 0 -64 48q-64 -50 -172 -50q-154 0 -154 135q0 66 43 94.5t136 28.5q73 0 145 -9v26q0 77 -31 105t-104 28h-102q-27 0 -42.5 13.5 t-15.5 34.5zM368 188q-48 8 -131 8q-64 0 -93.5 -13.5t-29.5 -54.5q0 -42 25.5 -59.5t75.5 -17.5q92 0 153 46v91zM136 687q0 48 32 79.5t83 31.5q52 0 84 -31t32 -80q0 -47 -32.5 -78t-83.5 -31q-50 0 -82.5 31t-32.5 78zM192 687q0 -28 17 -44t42 -16t42.5 16t17.5 44 q0 26 -16.5 44t-43.5 18t-43 -18t-16 -44z" unicode="å" glyph-name="aring"/>
<glyph d="M771 199h-328q6 -82 51.5 -114t131.5 -32q88 0 160 39q21 10 21 -8q0 -43 -40 -62q-55 -33 -147 -33q-146 0 -207 77q-80 -72 -215 -72q-154 0 -154 135q0 66 43.5 94.5t135.5 28.5q74 0 146 -9v26q0 77 -31.5 105t-104.5 28h-101q-27 0 -42.5 13.5t-15.5 34.5q0 9 4 11 t19 2h136q138 0 182 -72q56 79 177 79q108 0 162.5 -61.5t54.5 -168.5q0 -41 -38 -41zM595 410q-135 0 -151 -154h295q-2 73 -37.5 113.5t-106.5 40.5zM216 51q102 0 171 60q-8 19 -13 45h-5v32q-49 8 -131 8q-65 0 -94.5 -13.5t-29.5 -54.5q0 -42 25.5 -59.5t76.5 -17.5z " unicode="æ" glyph-name="ae" horiz-adv-x="861"/>
<glyph d="M261 -39v28q-106 7 -157.5 70.5t-51.5 167.5q0 113 59.5 178t175.5 65q105 0 145 -52q9 -13 9 -29q0 -14 -4.5 -17.5t-19.5 1.5q-66 33 -122 33q-87 0 -128.5 -48.5t-41.5 -129.5q0 -79 41 -127.5t134 -48.5q56 0 125 30q20 7 22.5 4t2.5 -13q0 -37 -31 -54 q-42 -24 -103 -29v-19q0 -17 16.5 -27t36.5 -15t36.5 -23t16.5 -49q0 -48 -37 -69.5t-85 -21.5q-46 0 -86 14q-10 4 -13 7t-3 11v22q0 9 4.5 10.5t16.5 -1.5q38 -12 72 -12q76 0 76 39q0 19 -16.5 29t-36.5 13.5t-36.5 19t-16.5 43.5z" unicode="ç" glyph-name="ccedilla" horiz-adv-x="490"/>
<glyph d="M454 199h-328q6 -82 51.5 -114t131.5 -32q88 0 160 39q21 10 21 -8q0 -43 -40 -62q-55 -33 -147 -33q-251 0 -251 230q0 122 57.5 186.5t165.5 64.5t162.5 -61.5t54.5 -168.5q0 -41 -38 -41zM278 410q-135 0 -151 -154h295q-2 73 -37.5 113.5t-106.5 40.5zM229 700 l97 -110q3 -3 3 -6t-2.5 -4.5t-5.5 -1.5h-41q-12 0 -20 8l-109 107q-7 7 -5 13t11 6h47q16 0 25 -12z" unicode="è" glyph-name="egrave" horiz-adv-x="544"/>
<glyph d="M454 199h-328q6 -82 51.5 -114t131.5 -32q88 0 160 39q21 10 21 -8q0 -43 -40 -62q-55 -33 -147 -33q-251 0 -251 230q0 122 57.5 186.5t165.5 64.5t162.5 -61.5t54.5 -168.5q0 -41 -38 -41zM278 410q-135 0 -151 -154h295q-2 73 -37.5 113.5t-106.5 40.5zM216 597 l87 110q9 12 21 12h47q11 0 13.5 -6.5t-7.5 -15.5l-100 -105q-8 -8 -20 -8h-36q-15 0 -5 13z" unicode="é" glyph-name="eacute" horiz-adv-x="544"/>
<glyph d="M454 199h-328q6 -82 51.5 -114t131.5 -32q88 0 160 39q21 10 21 -8q0 -43 -40 -62q-55 -33 -147 -33q-251 0 -251 230q0 122 57.5 186.5t165.5 64.5t162.5 -61.5t54.5 -168.5q0 -41 -38 -41zM278 410q-135 0 -151 -154h295q-2 73 -37.5 113.5t-106.5 40.5zM274 660 l-75 -64q-14 -12 -29 -12h-30q-12 0 -16 6t3 13l116 98q7 7 17 7h28q10 0 17 -7l116 -98q7 -7 3.5 -13t-14.5 -6h-32q-17 0 -29 12z" unicode="ê" glyph-name="ecircumflex" horiz-adv-x="544"/>
<glyph d="M454 199h-328q6 -82 51.5 -114t131.5 -32q88 0 160 39q21 10 21 -8q0 -43 -40 -62q-55 -33 -147 -33q-251 0 -251 230q0 122 57.5 186.5t165.5 64.5t162.5 -61.5t54.5 -168.5q0 -41 -38 -41zM278 410q-135 0 -151 -154h295q-2 73 -37.5 113.5t-106.5 40.5zM143 623 q0 19 12 30t31 11q20 0 32.5 -11t12.5 -30q0 -18 -12.5 -29.5t-32.5 -11.5q-19 0 -31 11.5t-12 29.5zM324 623q0 19 12 30t31 11q20 0 32.5 -11t12.5 -30q0 -18 -12.5 -29.5t-32.5 -11.5q-19 0 -31 11.5t-12 29.5z" unicode="ë" glyph-name="edieresis" horiz-adv-x="544"/>
<glyph d="M98 463q56 0 56 -56v-320q0 -29 6 -38.5t24 -9.5q10 0 13.5 -0.5t5 -2.5t1.5 -7q0 -38 -55 -38q-65 0 -65 73v374q0 16 2 20.5t12 4.5zM72 700l97 -110q4 -4 2.5 -8t-7.5 -4h-41q-12 0 -20 8l-109 107q-7 7 -5 13t11 6h47q16 0 25 -12z" unicode="ì" glyph-name="igrave" horiz-adv-x="248"/>
<glyph d="M98 463q56 0 56 -56v-320q0 -29 6 -38.5t24 -9.5q10 0 13.5 -0.5t5 -2.5t1.5 -7q0 -38 -55 -38q-65 0 -65 73v374q0 16 2 20.5t12 4.5zM60 597l87 110q9 12 21 12h47q11 0 13.5 -6.5t-7.5 -15.5l-100 -105q-8 -8 -20 -8h-36q-15 0 -5 13z" unicode="í" glyph-name="iacute" horiz-adv-x="248"/>
<glyph d="M98 463q56 0 56 -56v-320q0 -29 6 -38.5t24 -9.5q10 0 13.5 -0.5t5 -2.5t1.5 -7q0 -38 -55 -38q-65 0 -65 73v374q0 16 2 20.5t12 4.5zM118 660l-75 -64q-14 -12 -29 -12h-30q-12 0 -16 6t3 13l116 98q7 7 17 7h28q10 0 17 -7l116 -98q7 -7 3.5 -13t-14.5 -6h-32 q-17 0 -29 12z" unicode="î" glyph-name="icircumflex" horiz-adv-x="248"/>
<glyph d="M98 463q56 0 56 -56v-320q0 -29 6 -38.5t24 -9.5q10 0 13.5 -0.5t5 -2.5t1.5 -7q0 -38 -55 -38q-65 0 -65 73v374q0 16 2 20.5t12 4.5zM-13 623q0 19 12 30t31 11q20 0 32.5 -11t12.5 -30q0 -18 -12.5 -29.5t-32.5 -11.5q-19 0 -31 11.5t-12 29.5zM168 623q0 19 12 30 t31 11q20 0 32.5 -11t12.5 -30q0 -18 -12.5 -29.5t-32.5 -11.5q-19 0 -31 11.5t-12 29.5z" unicode="ï" glyph-name="idieresis" horiz-adv-x="248"/>
<glyph d="M534 323q0 -171 -58 -253.5t-187 -82.5q-116 0 -176.5 66.5t-60.5 180.5q0 107 63.5 159.5t163.5 52.5q105 0 178 -64q-6 110 -40 173l-32 -25q-32 -26 -51 -26h-48q-18 0 -21.5 8t8.5 17l105 79q-51 46 -133 46q-85 0 -135 -29q-21 -10 -21 11q0 41 45.5 61t119.5 20 q113 0 182 -64l38 30q33 25 51 25h48q17 0 20.5 -8t-8.5 -16l-108 -83q57 -98 57 -278zM288 383q-72 0 -117 -36t-45 -116q0 -88 43 -134.5t117 -46.5q96 0 134.5 65.5t38.5 199.5q-66 68 -171 68z" unicode="ð" glyph-name="eth" horiz-adv-x="604"/>
<glyph d="M481 92q0 -29 6 -38.5t24 -9.5q10 0 13.5 -0.5t5 -2.5t1.5 -7q0 -38 -55 -38q-66 0 -66 73v216q0 123 -113 123q-60 0 -92.5 -34t-38.5 -93v-253q0 -18 -5 -23t-23 -5h-14q-17 0 -22.5 5t-5.5 23v376h-10q-21 0 -31.5 14t-10.5 32q0 9 4 11t18 2h44q56 0 56 -56v-7 q48 70 150 70q165 0 165 -180v-198zM147 610q0 34 19.5 57.5t52.5 23.5t69 -21t52 -21q30 0 33 30q2 10 15 10h22q15 0 15 -14q0 -38 -21.5 -60t-52.5 -22q-33 0 -68 21t-52 21q-28 0 -32 -29q-1 -10 -16 -10h-22q-14 0 -14 14z" unicode="ñ" glyph-name="ntilde" horiz-adv-x="568"/>
<glyph d="M51 230q0 111 63 175.5t177 64.5q113 0 176 -65t63 -175t-63 -173.5t-176 -63.5q-115 0 -177.5 63.5t-62.5 173.5zM124 230q0 -80 44 -127.5t123 -47.5t122 47.5t43 127.5t-43.5 129t-121.5 49q-79 0 -123 -49t-44 -129zM248 700l97 -110q4 -4 2.5 -8t-7.5 -4h-41 q-12 0 -20 8l-109 107q-7 7 -5 13t11 6h47q16 0 25 -12z" unicode="ò" glyph-name="ograve" horiz-adv-x="588"/>
<glyph d="M51 230q0 111 63 175.5t177 64.5q113 0 176 -65t63 -175t-63 -173.5t-176 -63.5q-115 0 -177.5 63.5t-62.5 173.5zM124 230q0 -80 44 -127.5t123 -47.5t122 47.5t43 127.5t-43.5 129t-121.5 49q-79 0 -123 -49t-44 -129zM235 597l87 110q9 12 21 12h47q11 0 13.5 -6.5 t-7.5 -15.5l-100 -105q-8 -8 -20 -8h-36q-15 0 -5 13z" unicode="ó" glyph-name="oacute" horiz-adv-x="588"/>
<glyph d="M51 230q0 111 63 175.5t177 64.5q113 0 176 -65t63 -175t-63 -173.5t-176 -63.5q-115 0 -177.5 63.5t-62.5 173.5zM124 230q0 -80 44 -127.5t123 -47.5t122 47.5t43 127.5t-43.5 129t-121.5 49q-79 0 -123 -49t-44 -129zM294 660l-75 -64q-14 -12 -29 -12h-30 q-12 0 -16 6t3 13l116 98q7 7 17 7h28q10 0 17 -7l116 -98q7 -7 3.5 -13t-14.5 -6h-32q-17 0 -29 12z" unicode="ô" glyph-name="ocircumflex" horiz-adv-x="588"/>
<glyph d="M51 230q0 111 63 175.5t177 64.5q113 0 176 -65t63 -175t-63 -173.5t-176 -63.5q-115 0 -177.5 63.5t-62.5 173.5zM124 230q0 -80 44 -127.5t123 -47.5t122 47.5t43 127.5t-43.5 129t-121.5 49q-79 0 -123 -49t-44 -129zM153 610q0 34 19.5 57.5t52.5 23.5t69 -21t52 -21 q30 0 33 30q2 10 15 10h22q15 0 15 -14q0 -38 -21.5 -60t-52.5 -22q-33 0 -68 21t-52 21q-28 0 -32 -29q-1 -10 -16 -10h-22q-14 0 -14 14z" unicode="õ" glyph-name="otilde" horiz-adv-x="588"/>
<glyph d="M51 230q0 111 63 175.5t177 64.5q113 0 176 -65t63 -175t-63 -173.5t-176 -63.5q-115 0 -177.5 63.5t-62.5 173.5zM124 230q0 -80 44 -127.5t123 -47.5t122 47.5t43 127.5t-43.5 129t-121.5 49q-79 0 -123 -49t-44 -129zM162 623q0 19 12 30t31 11q20 0 32.5 -11 t12.5 -30q0 -18 -12.5 -29.5t-32.5 -11.5q-19 0 -31 11.5t-12 29.5zM343 623q0 19 12 30t31 11q20 0 32.5 -11t12.5 -30q0 -18 -12.5 -29.5t-32.5 -11.5q-19 0 -31 11.5t-12 29.5z" unicode="ö" glyph-name="odieresis" horiz-adv-x="588"/>
<glyph d="M61 204q-16 0 -20.5 4.5t-4.5 19.5v16q0 15 4.5 19.5t20.5 4.5h390q16 0 21 -4.5t5 -19.5v-16q0 -15 -5 -19.5t-21 -4.5h-390zM213 33q0 18 12 29t31 11q20 0 32.5 -10.5t12.5 -29.5t-12.5 -30t-32.5 -11q-19 0 -31 11t-12 30zM213 428q0 18 12 29t31 11q20 0 32.5 -10.5 t12.5 -29.5t-12.5 -30t-32.5 -11q-19 0 -31 11t-12 30z" unicode="÷" glyph-name="divide" horiz-adv-x="537"/>
<glyph d="M51 230q0 111 63 175.5t177 64.5q54 0 103 -18l22 34q4 6 8 10t9 5.5t7.5 2t10.5 0t11 -0.5q17 0 22 -3.5t-2 -16.5l-37 -59q85 -65 85 -194q0 -110 -63 -173.5t-176 -63.5q-59 0 -105 17l-22 -36q-11 -17 -27 -17h-31q-22 0 -11 18l39 63q-83 62 -83 192zM124 230 q0 -84 48 -132l187 298q-30 12 -68 12q-79 0 -123 -49t-44 -129zM456 230q0 84 -48 134l-186 -298q31 -11 69 -11q79 0 122 47.5t43 127.5z" unicode="ø" glyph-name="oslash" horiz-adv-x="588"/>
<glyph d="M105 463q30 0 43.5 -13.5t13.5 -42.5v-237q0 -111 107 -111q63 0 97 32.5t40 87.5v225h-12q-21 0 -31.5 14t-10.5 32q0 9 4 11t19 2h45q30 0 43.5 -13.5t13.5 -42.5v-315q0 -29 6 -38.5t24 -9.5q10 0 13 -0.5t5 -2.5t2 -7q0 -38 -55 -38q-64 0 -66 70q-48 -71 -154 -71 q-161 0 -161 174v235h-12q-21 0 -31.5 14t-10.5 32q0 9 4 11t18 2h46zM231 700l97 -110q3 -3 3 -6t-2.5 -4.5t-5.5 -1.5h-41q-12 0 -20 8l-109 107q-7 7 -5 13t11 6h47q16 0 25 -12z" unicode="ù" glyph-name="ugrave" horiz-adv-x="569"/>
<glyph d="M105 463q30 0 43.5 -13.5t13.5 -42.5v-237q0 -111 107 -111q63 0 97 32.5t40 87.5v225h-12q-21 0 -31.5 14t-10.5 32q0 9 4 11t19 2h45q30 0 43.5 -13.5t13.5 -42.5v-315q0 -29 6 -38.5t24 -9.5q10 0 13 -0.5t5 -2.5t2 -7q0 -38 -55 -38q-64 0 -66 70q-48 -71 -154 -71 q-161 0 -161 174v235h-12q-21 0 -31.5 14t-10.5 32q0 9 4 11t18 2h46zM219 597l87 110q9 12 21 12h47q11 0 13.5 -6.5t-7.5 -15.5l-100 -105q-8 -8 -20 -8h-36q-15 0 -5 13z" unicode="ú" glyph-name="uacute" horiz-adv-x="569"/>
<glyph d="M105 463q30 0 43.5 -13.5t13.5 -42.5v-237q0 -111 107 -111q63 0 97 32.5t40 87.5v225h-12q-21 0 -31.5 14t-10.5 32q0 9 4 11t19 2h45q30 0 43.5 -13.5t13.5 -42.5v-315q0 -29 6 -38.5t24 -9.5q10 0 13 -0.5t5 -2.5t2 -7q0 -38 -55 -38q-64 0 -66 70q-48 -71 -154 -71 q-161 0 -161 174v235h-12q-21 0 -31.5 14t-10.5 32q0 9 4 11t18 2h46zM277 660l-75 -64q-14 -12 -29 -12h-30q-12 0 -16 6t3 13l116 98q7 7 17 7h28q10 0 17 -7l116 -98q7 -7 3.5 -13t-14.5 -6h-32q-17 0 -29 12z" unicode="û" glyph-name="ucircumflex" horiz-adv-x="569"/>
<glyph d="M105 463q30 0 43.5 -13.5t13.5 -42.5v-237q0 -111 107 -111q63 0 97 32.5t40 87.5v225h-12q-21 0 -31.5 14t-10.5 32q0 9 4 11t19 2h45q30 0 43.5 -13.5t13.5 -42.5v-315q0 -29 6 -38.5t24 -9.5q10 0 13 -0.5t5 -2.5t2 -7q0 -38 -55 -38q-64 0 -66 70q-48 -71 -154 -71 q-161 0 -161 174v235h-12q-21 0 -31.5 14t-10.5 32q0 9 4 11t18 2h46zM326 623q0 19 12 30t31 11q20 0 32.5 -11t12.5 -30q0 -18 -12.5 -29.5t-32.5 -11.5q-19 0 -31 11.5t-12 29.5zM145 623q0 19 12 30t31 11q20 0 32.5 -11t12.5 -30q0 -18 -12.5 -29.5t-32.5 -11.5 q-19 0 -31 11.5t-12 29.5z" unicode="ü" glyph-name="udieresis" horiz-adv-x="569"/>
<glyph d="M225 -51l22 54l-168 401h-17q-21 0 -31.5 14t-10.5 32q0 9 4 11t18 2h51q35 0 50 -36l139 -339l132 320h-17q-35 14 -35 42q0 9 4 11t16 2h77q31 0 31 -20q0 -21 -13 -52l-184 -446q-39 -97 -78.5 -135.5t-96.5 -38.5q-44 0 -67.5 16.5t-23.5 41.5q0 11 4 14t11 1 q30 -13 62 -13q21 0 37.5 6t40 33.5t43.5 78.5zM202 594l87 110q9 12 21 12h47q11 0 13.5 -6.5t-7.5 -15.5l-100 -105q-8 -8 -20 -8h-36q-15 0 -5 13z" unicode="ý" glyph-name="yacute" horiz-adv-x="527"/>
<glyph d="M328 -8q-122 0 -176 89v-249q0 -21 -5 -26.5t-25 -5.5h-7q-21 0 -26 5.5t-5 26.5v843q0 22 5 27.5t26 5.5h7q20 0 25 -5.5t5 -27.5v-300q55 94 177 94q104 0 161.5 -66t57.5 -175q0 -108 -57.5 -172t-162.5 -64zM153 228q0 -72 39.5 -122t120.5 -50q79 0 119.5 48 t40.5 125q0 78 -41 127t-118 49q-80 0 -120.5 -51.5t-40.5 -125.5z" unicode="þ" glyph-name="thorn" horiz-adv-x="614"/>
</font>
</defs>
</svg>
